<svg width="769" height="748" viewBox="0 0 769 748" fill="none" xmlns="http://www.w3.org/2000/svg">
<g opacity="0.35">
<g opacity="0.5">
<path opacity="0.5" d="M701.34 495.637C701.34 496.274 701.933 496.791 702.666 496.791C703.399 496.791 703.993 496.274 703.993 495.637C703.993 495 703.399 494.483 702.666 494.483C701.933 494.483 701.34 495 701.34 495.637Z" fill="white"/>
<path opacity="0.5" d="M742.879 555.712C742.879 556.35 743.473 556.866 744.206 556.866C744.939 556.866 745.533 556.35 745.533 555.712C745.533 555.075 744.939 554.558 744.206 554.558C743.473 554.558 742.879 555.075 742.879 555.712Z" fill="white"/>
<path opacity="0.5" d="M726.163 633.454C726.163 634.091 726.757 634.608 727.49 634.608C728.223 634.608 728.817 634.091 728.817 633.454C728.817 632.817 728.223 632.3 727.49 632.3C726.757 632.3 726.163 632.817 726.163 633.454Z" fill="white"/>
<path opacity="0.5" d="M354.281 646.428C354.281 647.065 354.875 647.582 355.608 647.582C356.34 647.582 356.934 647.065 356.934 646.428C356.934 645.791 356.34 645.274 355.608 645.274C354.875 645.274 354.281 645.791 354.281 646.428Z" fill="white"/>
<path opacity="0.5" d="M738.162 140.954C738.162 141.592 738.756 142.108 739.489 142.108C740.221 142.108 740.815 141.592 740.815 140.954C740.815 140.317 740.221 139.801 739.489 139.801C738.756 139.801 738.162 140.317 738.162 140.954Z" fill="white"/>
<path opacity="0.5" d="M655.672 142.109C655.672 142.746 656.266 143.262 656.999 143.262C657.732 143.262 658.326 142.746 658.326 142.109C658.326 141.471 657.732 140.955 656.999 140.955C656.266 140.955 655.672 141.471 655.672 142.109Z" fill="white"/>
<path opacity="0.5" d="M761.423 50.239C761.423 50.8763 762.017 51.3928 762.75 51.3928C763.483 51.3928 764.076 50.8763 764.076 50.239C764.076 49.6018 763.483 49.0852 762.75 49.0852C762.017 49.0852 761.423 49.6018 761.423 50.239Z" fill="white"/>
<path opacity="0.5" d="M761.423 246.465C761.423 247.102 762.017 247.618 762.75 247.618C763.483 247.618 764.076 247.102 764.076 246.465C764.076 245.827 763.483 245.311 762.75 245.311C762.017 245.311 761.423 245.827 761.423 246.465Z" fill="white"/>
<path opacity="0.5" d="M568.171 336.206C568.171 336.843 568.765 337.359 569.498 337.359C570.23 337.359 570.824 336.843 570.824 336.206C570.824 335.568 570.23 335.052 569.498 335.052C568.765 335.052 568.171 335.568 568.171 336.206Z" fill="white"/>
<path opacity="0.5" d="M471.264 160.749C471.264 161.386 471.858 161.903 472.591 161.903C473.324 161.903 473.918 161.386 473.918 160.749C473.918 160.112 473.324 159.595 472.591 159.595C471.858 159.595 471.264 160.112 471.264 160.749Z" fill="white"/>
<path opacity="0.5" d="M469.938 63.8279C469.938 64.4651 470.532 64.9817 471.264 64.9817C471.997 64.9817 472.591 64.4651 472.591 63.8279C472.591 63.1907 471.997 62.6741 471.264 62.6741C470.532 62.6741 469.938 63.1907 469.938 63.8279Z" fill="white"/>
<path opacity="0.5" d="M429.165 701.94C429.165 702.959 430.115 703.786 431.287 703.786C432.46 703.786 433.41 702.959 433.41 701.94C433.41 700.92 432.46 700.094 431.287 700.094C430.115 700.094 429.165 700.92 429.165 701.94Z" fill="white"/>
<path opacity="0.5" d="M360.59 32.5474C360.59 33.567 361.54 34.3935 362.713 34.3935C363.885 34.3935 364.835 33.567 364.835 32.5474C364.835 31.5278 363.885 30.7013 362.713 30.7013C361.54 30.7013 360.59 31.5278 360.59 32.5474Z" fill="white"/>
<path opacity="0.5" d="M552.074 632.3C552.074 633.32 553.024 634.146 554.196 634.146C555.369 634.146 556.319 633.32 556.319 632.3C556.319 631.281 555.369 630.454 554.196 630.454C553.024 630.454 552.074 631.281 552.074 632.3Z" fill="white"/>
<path opacity="0.5" d="M605.819 494.509C605.819 495.529 606.769 496.355 607.941 496.355C609.114 496.355 610.064 495.529 610.064 494.509C610.064 493.489 609.114 492.663 607.941 492.663C606.769 492.663 605.819 493.489 605.819 494.509Z" fill="white"/>
<path opacity="0.5" d="M623.714 672.556C623.714 673.576 624.664 674.402 625.837 674.402C627.009 674.402 627.959 673.576 627.959 672.556C627.959 671.536 627.009 670.71 625.837 670.71C624.664 670.71 623.714 671.536 623.714 672.556Z" fill="white"/>
<path opacity="0.5" d="M581.408 210.747C581.408 211.385 582.002 211.901 582.735 211.901C583.467 211.901 584.061 211.385 584.061 210.747C584.061 210.11 583.467 209.594 582.735 209.594C582.002 209.594 581.408 210.11 581.408 210.747Z" fill="white"/>
<path opacity="0.5" d="M640.607 280.002C640.607 280.639 641.201 281.156 641.934 281.156C642.667 281.156 643.261 280.639 643.261 280.002C643.261 279.365 642.667 278.848 641.934 278.848C641.201 278.848 640.607 279.365 640.607 280.002Z" fill="white"/>
<path opacity="0.5" d="M566.873 99.9045C566.873 100.542 567.467 101.058 568.2 101.058C568.933 101.058 569.527 100.542 569.527 99.9045C569.527 99.2673 568.933 98.7507 568.2 98.7507C567.467 98.7507 566.873 99.2673 566.873 99.9045Z" fill="white"/>
<path opacity="0.5" d="M58.727 343.821C58.727 344.458 59.3209 344.975 60.0536 344.975C60.7863 344.975 61.3803 344.458 61.3803 343.821C61.3803 343.184 60.7863 342.667 60.0536 342.667C59.3209 342.667 58.727 343.184 58.727 343.821Z" fill="white"/>
<path opacity="0.5" d="M2.12264 627.557C2.12264 628.576 3.07298 629.403 4.2453 629.403C5.41763 629.403 6.36804 628.576 6.36804 627.557C6.36804 626.537 5.41763 625.711 4.2453 625.711C3.07298 625.711 2.12264 626.537 2.12264 627.557Z" fill="white"/>
<path opacity="0.5" d="M33.6677 181.466C33.6677 182.103 34.2617 182.62 34.9944 182.62C35.7271 182.62 36.321 182.103 36.321 181.466C36.321 180.829 35.7271 180.312 34.9944 180.312C34.2617 180.312 33.6677 180.829 33.6677 181.466Z" fill="white"/>
<path opacity="0.5" d="M110.762 91.4685C110.762 92.1057 111.356 92.6223 112.089 92.6223C112.822 92.6223 113.416 92.1057 113.416 91.4685C113.416 90.8313 112.822 90.3147 112.089 90.3147C111.356 90.3147 110.762 90.8313 110.762 91.4685Z" fill="white"/>
<path opacity="0.5" d="M761.423 448.075C761.423 448.712 762.017 449.228 762.75 449.228C763.483 449.228 764.076 448.712 764.076 448.075C764.076 447.437 763.483 446.921 762.75 446.921C762.017 446.921 761.423 447.437 761.423 448.075Z" fill="white"/>
<path opacity="0.5" d="M624.274 46.7263C624.274 47.3636 624.868 47.8801 625.601 47.8801C626.334 47.8801 626.928 47.3636 626.928 46.7263C626.928 46.0891 626.334 45.5725 625.601 45.5725C624.868 45.5725 624.274 46.0891 624.274 46.7263Z" fill="white"/>
<path opacity="0.5" d="M736.069 333.205C736.069 334.225 737.019 335.052 738.192 335.052C739.364 335.052 740.314 334.225 740.314 333.205C740.314 332.186 739.364 331.359 738.192 331.359C737.019 331.359 736.069 332.186 736.069 333.205Z" fill="white"/>
<path opacity="0.5" d="M764.755 670.71C764.755 671.729 765.705 672.556 766.877 672.556C768.05 672.556 769 671.729 769 670.71C769 669.69 768.05 668.864 766.877 668.864C765.705 668.864 764.755 669.69 764.755 670.71Z" fill="white"/>
<path opacity="0.5" d="M668.349 405.332C668.349 406.352 669.3 407.178 670.472 407.178C671.644 407.178 672.595 406.352 672.595 405.332C672.595 404.312 671.644 403.486 670.472 403.486C669.3 403.486 668.349 404.312 668.349 405.332Z" fill="white"/>
<path opacity="0.5" d="M101.505 269.182C101.505 269.819 102.099 270.336 102.832 270.336C103.565 270.336 104.159 269.819 104.159 269.182C104.159 268.545 103.565 268.028 102.832 268.028C102.099 268.028 101.505 268.545 101.505 269.182Z" fill="white"/>
<path opacity="0.5" d="M216.366 45.5725C216.366 46.2098 216.959 46.7263 217.692 46.7263C218.425 46.7263 219.019 46.2098 219.019 45.5725C219.019 44.9353 218.425 44.4187 217.692 44.4187C216.959 44.4187 216.366 44.9353 216.366 45.5725Z" fill="white"/>
<path opacity="0.5" d="M162.119 182.62C162.119 183.257 162.713 183.774 163.446 183.774C164.179 183.774 164.773 183.257 164.773 182.62C164.773 181.983 164.179 181.466 163.446 181.466C162.713 181.466 162.119 181.983 162.119 182.62Z" fill="white"/>
<path opacity="0.5" d="M126.063 599.07C126.063 599.708 126.657 600.224 127.39 600.224C128.123 600.224 128.717 599.708 128.717 599.07C128.717 598.433 128.123 597.917 127.39 597.917C126.657 597.917 126.063 598.433 126.063 599.07Z" fill="white"/>
<path opacity="0.5" d="M230.458 508.56C230.458 509.197 231.052 509.714 231.785 509.714C232.517 509.714 233.111 509.197 233.111 508.56C233.111 507.923 232.517 507.406 231.785 507.406C231.052 507.406 230.458 507.923 230.458 508.56Z" fill="white"/>
<path opacity="0.5" d="M102.832 689.786C102.832 690.423 103.426 690.94 104.159 690.94C104.892 690.94 105.486 690.423 105.486 689.786C105.486 689.149 104.892 688.632 104.159 688.632C103.426 688.632 102.832 689.149 102.832 689.786Z" fill="white"/>
<path opacity="0.5" d="M229.662 616.327C229.662 617.346 230.612 618.173 231.785 618.173C232.957 618.173 233.907 617.346 233.907 616.327C233.907 615.307 232.957 614.48 231.785 614.48C230.612 614.48 229.662 615.307 229.662 616.327Z" fill="white"/>
<path opacity="0.5" d="M239.981 693.299C239.981 693.936 240.575 694.453 241.307 694.453C242.04 694.453 242.634 693.936 242.634 693.299C242.634 692.662 242.04 692.145 241.307 692.145C240.575 692.145 239.981 692.662 239.981 693.299Z" fill="white"/>
<path opacity="0.5" d="M68.9278 532.175C68.9278 533.195 69.8782 534.021 71.0505 534.021C72.2228 534.021 73.1732 533.195 73.1732 532.175C73.1732 531.155 72.2228 530.329 71.0505 530.329C69.8782 530.329 68.9278 531.155 68.9278 532.175Z" fill="white"/>
<path opacity="0.5" d="M181.282 356.231C181.282 357.25 182.233 358.077 183.405 358.077C184.577 358.077 185.528 357.25 185.528 356.231C185.528 355.211 184.577 354.385 183.405 354.385C182.233 354.385 181.282 355.211 181.282 356.231Z" fill="white"/>
<path opacity="0.5" d="M6.36795 416.921C6.36795 417.941 7.31829 418.768 8.49061 418.768C9.66294 418.768 10.6133 417.941 10.6133 416.921C10.6133 415.902 9.66294 415.075 8.49061 415.075C7.31829 415.075 6.36795 415.902 6.36795 416.921Z" fill="white"/>
<path opacity="0.5" d="M-3.38554e-05 45.5723C-3.38554e-05 46.5919 0.950309 47.4184 2.12263 47.4184C3.29496 47.4184 4.2453 46.5919 4.2453 45.5723C4.2453 44.5527 3.29496 43.7262 2.12263 43.7262C0.950309 43.7262 -3.38554e-05 44.5527 -3.38554e-05 45.5723Z" fill="white"/>
</g>
<path d="M80.2542 30.0744C80.2542 46.2035 95.2883 59.2787 113.834 59.2787C132.379 59.2787 147.414 46.2035 147.414 30.0744C147.414 13.9452 132.379 0.869995 113.834 0.869995C95.2883 0.869995 80.2542 13.9452 80.2542 30.0744Z" fill="url(#paint0_linear_232_217)"/>
<path d="M313.229 70.239C313.229 78.1832 320.634 84.6232 329.769 84.6232C338.903 84.6232 346.308 78.1832 346.308 70.239C346.308 62.2948 338.903 55.8547 329.769 55.8547C320.634 55.8547 313.229 62.2948 313.229 70.239Z" fill="url(#paint1_linear_232_217)"/>
<path d="M103.298 732.947C103.298 740.891 110.703 747.331 119.837 747.331C128.972 747.331 136.376 740.891 136.376 732.947C136.376 725.003 128.972 718.563 119.837 718.563C110.703 718.563 103.298 725.003 103.298 732.947Z" fill="url(#paint2_linear_232_217)"/>
<path d="M645.611 50.2492C645.611 58.1934 653.016 64.6335 662.15 64.6335C671.284 64.6335 678.689 58.1934 678.689 50.2492C678.689 42.3051 671.284 35.865 662.15 35.865C653.016 35.865 645.611 42.3051 645.611 50.2492Z" fill="url(#paint3_linear_232_217)"/>
<path opacity="0.2" d="M634.574 270.412C613.226 185.976 472.453 166.999 320.15 228.025C167.847 289.05 61.6871 406.97 83.0358 491.405C104.384 575.841 245.157 594.818 397.46 533.792C549.764 472.766 655.923 354.847 634.574 270.412Z" fill="#754E8C"/>
<path opacity="0.2" d="M587.313 289.348C569.622 219.377 452.973 203.648 326.772 254.215C200.571 304.782 112.606 402.497 130.297 472.468C147.988 542.438 264.637 558.168 390.838 507.601C517.04 457.034 605.004 359.319 587.313 289.348Z" fill="#754E8C"/>
<path opacity="0.2" d="M533.77 310.803C520.225 257.229 430.909 245.187 334.279 283.905C237.648 322.624 170.294 397.441 183.84 451.015C197.385 504.589 286.701 516.631 383.332 477.913C479.962 439.194 547.316 364.377 533.77 310.803Z" fill="#754E8C"/>
<path opacity="0.2" d="M481.629 331.695C472.122 294.096 409.426 285.65 341.592 312.829C273.758 340.009 226.475 392.523 235.982 430.122C245.488 467.721 308.185 476.167 376.018 448.988C443.852 421.808 491.135 369.294 481.629 331.695Z" fill="#754E8C"/>
<path d="M348.429 340.062C303.242 358.262 271.239 391.3 276.973 413.85C282.707 436.4 323.973 439.948 369.184 421.747C414.371 403.547 446.374 370.509 440.64 347.959C434.906 325.409 393.616 321.861 348.429 340.062Z" fill="url(#paint4_radial_232_217)"/>
<path d="M634.79 270.314C631.556 257.512 625.577 246.191 617.245 236.443C604.748 221.821 586.957 210.716 565.124 203.22C543.29 195.755 517.438 191.929 488.816 191.929C438.827 191.929 380.334 203.559 320.053 227.713C250.435 255.6 190.447 295.394 147.858 338.458C126.564 359.99 109.606 382.324 97.9913 404.442C86.3516 426.529 80.0539 448.4 80.0539 468.914C80.0539 476.657 80.9605 484.215 82.7984 491.495C86.033 504.297 92.0121 515.618 100.344 525.366C112.841 539.988 130.631 551.093 152.465 558.589C174.299 566.054 200.151 569.88 228.773 569.88C278.762 569.88 337.255 558.25 397.536 534.096C467.154 506.209 527.141 466.415 569.73 423.351C591.025 401.819 607.982 379.485 619.598 357.367C631.237 335.28 637.535 313.409 637.535 292.895C637.535 285.152 636.628 277.594 634.79 270.314ZM619.181 357.028C584.409 423.105 501.73 491.68 397.365 533.479C337.132 557.602 278.689 569.232 228.773 569.232C190.643 569.232 157.44 562.445 132.2 549.304C119.58 542.733 108.945 534.589 100.662 524.903C92.3797 515.217 86.4496 503.988 83.2395 491.31C81.4016 484.06 80.5195 476.595 80.5195 468.914C80.5195 448.554 86.7926 426.806 98.3833 404.781C133.155 338.704 215.834 270.129 320.2 228.33C380.432 204.207 438.876 192.577 488.792 192.577C526.921 192.577 560.125 199.364 585.364 212.505C597.984 219.076 608.619 227.22 616.902 236.906C625.185 246.592 631.115 257.821 634.325 270.499C636.163 277.749 637.045 285.214 637.045 292.895C637.045 313.255 630.772 335.003 619.181 357.028Z" fill="#754E8C"/>
<path d="M572.99 261.152C562.624 249.029 547.872 239.805 529.788 233.636C511.704 227.435 490.262 224.289 466.541 224.289C425.104 224.289 376.658 233.913 326.693 253.934C269.009 277.039 219.289 310.016 183.978 345.707C166.335 363.537 152.294 382.077 142.639 400.369C133.008 418.693 127.764 436.801 127.764 453.829C127.764 460.245 128.5 466.508 130.043 472.554C132.739 483.166 137.689 492.574 144.599 500.656C154.965 512.78 169.716 522.003 187.801 528.173C205.885 534.373 227.327 537.52 251.047 537.52C292.485 537.52 340.931 527.895 390.896 507.875C448.579 484.77 498.299 451.793 533.611 416.102C551.254 398.272 565.295 379.732 574.95 361.439C584.58 343.115 589.824 325.008 589.824 307.98C589.824 301.563 589.089 295.301 587.545 289.255C584.85 278.612 579.9 269.234 572.99 261.152ZM574.533 361.1C545.716 415.855 477.225 472.646 390.748 507.289C340.832 527.278 292.411 536.903 251.047 536.903C219.436 536.903 191.967 531.288 171.04 520.399C160.576 514.97 151.779 508.214 144.918 500.194C138.056 492.173 133.155 482.888 130.509 472.369C128.99 466.384 128.255 460.184 128.255 453.829C128.255 436.955 133.45 418.94 143.055 400.709C171.873 345.953 240.363 289.162 326.84 254.52C376.756 234.53 425.178 224.906 466.541 224.906C498.152 224.906 525.622 230.52 546.549 241.409C557.013 246.839 565.81 253.594 572.671 261.615C579.532 269.635 584.433 278.921 587.104 289.44C588.624 295.424 589.359 301.625 589.359 307.98C589.334 324.853 584.139 342.838 574.533 361.1Z" fill="#754E8C"/>
<path d="M522.829 289.162C514.889 279.877 503.592 272.813 489.723 268.062C475.878 263.312 459.46 260.906 441.277 260.906C409.544 260.906 372.444 268.278 334.192 283.61C290.01 301.316 251.954 326.55 224.901 353.881C211.374 367.547 200.617 381.737 193.241 395.773C185.865 409.809 181.846 423.691 181.846 436.739C181.846 441.644 182.41 446.456 183.586 451.114C185.644 459.258 189.443 466.446 194.736 472.646C202.675 481.932 213.972 488.996 227.841 493.746C241.687 498.497 258.105 500.903 276.287 500.903C308.021 500.903 345.121 493.531 383.373 478.199C427.555 460.492 465.61 435.259 492.663 407.927C506.19 394.262 516.948 380.071 524.323 366.036C531.699 352 535.718 338.118 535.718 325.069C535.718 320.165 535.154 315.352 533.978 310.694C531.92 302.55 528.122 295.363 522.829 289.162ZM523.931 365.696C501.902 407.588 449.437 451.084 383.25 477.613C345.047 492.914 307.972 500.286 276.312 500.286C252.126 500.286 231.076 495.998 215.075 487.669C207.086 483.505 200.347 478.322 195.103 472.215C189.859 466.076 186.11 458.981 184.076 450.929C182.924 446.364 182.361 441.613 182.361 436.739C182.361 423.845 186.331 410.056 193.682 396.112C215.736 354.221 268.176 310.725 334.363 284.196C372.566 268.895 409.642 261.522 441.302 261.522C465.488 261.522 486.537 265.81 502.539 274.139C510.527 278.304 517.266 283.486 522.51 289.594C527.754 295.733 531.503 302.828 533.537 310.879C534.689 315.445 535.253 320.195 535.253 325.069C535.253 337.964 531.283 351.722 523.931 365.696Z" fill="#754E8C"/>
<path d="M473.991 316.432C468.404 309.892 460.464 304.926 450.736 301.594C441.008 298.262 429.466 296.566 416.723 296.566C394.449 296.566 368.376 301.748 341.519 312.514C310.496 324.946 283.761 342.684 264.795 361.871C255.311 371.465 247.739 381.429 242.544 391.3C237.349 401.171 234.531 410.919 234.531 420.112C234.531 423.567 234.923 426.96 235.757 430.23C237.202 435.968 239.873 441.027 243.598 445.377C249.185 451.916 257.125 456.883 266.853 460.215C276.581 463.546 288.123 465.243 300.865 465.243C323.14 465.243 349.213 460.06 376.07 449.294C407.093 436.863 433.828 419.125 452.794 399.937C462.278 390.344 469.85 380.38 475.045 370.508C480.24 360.637 483.058 350.889 483.058 341.696C483.058 338.241 482.665 334.848 481.832 331.578C480.387 325.871 477.716 320.781 473.991 316.432ZM474.652 370.169C466.934 384.853 453.873 399.845 436.915 413.48C419.983 427.115 399.154 439.392 375.923 448.708C349.115 459.443 323.091 464.626 300.865 464.626C283.884 464.626 269.132 461.603 257.909 455.772C252.297 452.842 247.568 449.233 243.917 444.945C240.241 440.657 237.619 435.69 236.198 430.045C235.389 426.837 234.997 423.536 234.997 420.112C234.997 411.074 237.766 401.418 242.936 391.639C250.655 376.956 263.716 361.964 280.674 348.329C297.606 334.694 318.435 322.416 341.666 313.1C368.474 302.365 394.498 297.183 416.723 297.183C433.705 297.183 448.457 300.206 459.68 306.036C465.292 308.967 470.021 312.576 473.672 316.864C477.348 321.152 479.97 326.118 481.391 331.763C482.2 334.971 482.592 338.272 482.592 341.696C482.592 350.735 479.798 360.39 474.652 370.169Z" fill="#754E8C"/>
<path d="M387.636 209.698C389.639 209.698 391.263 207.654 391.263 205.132C391.263 202.611 389.639 200.567 387.636 200.567C385.633 200.567 384.01 202.611 384.01 205.132C384.01 207.654 385.633 209.698 387.636 209.698Z" fill="url(#paint5_radial_232_217)"/>
<path d="M346.689 462.467C348.381 462.467 349.752 460.74 349.752 458.611C349.752 456.481 348.381 454.755 346.689 454.755C344.997 454.755 343.626 456.481 343.626 458.611C343.626 460.74 344.997 462.467 346.689 462.467Z" fill="url(#paint6_radial_232_217)"/>
<path d="M513.688 285.708C516.355 285.708 518.516 282.987 518.516 279.631C518.516 276.275 516.355 273.554 513.688 273.554C511.022 273.554 508.861 276.275 508.861 279.631C508.861 282.987 511.022 285.708 513.688 285.708Z" fill="url(#paint7_radial_232_217)"/>
<path d="M128.475 468.76C131.439 468.76 133.842 465.735 133.842 462.004C133.842 458.273 131.439 455.248 128.475 455.248C125.511 455.248 123.109 458.273 123.109 462.004C123.109 465.735 125.511 468.76 128.475 468.76Z" fill="url(#paint8_radial_232_217)"/>
<path d="M306.648 175.673C123.525 249.43 -1.5711 401.079 27.2219 514.415C56.0149 627.751 227.817 659.863 410.94 586.106C594.064 512.379 719.16 360.699 690.367 247.363C661.574 134.028 489.772 101.946 306.648 175.673Z" fill="url(#paint9_radial_232_217)"/>
</g>
<defs>
<linearGradient id="paint0_linear_232_217" x1="90.0985" y1="50.7075" x2="130.986" y2="3.69419" gradientUnits="userSpaceOnUse">
<stop stop-color="#F3E2E2"/>
<stop offset="0.1388" stop-color="white" stop-opacity="0.8612"/>
<stop offset="0.3419" stop-color="white" stop-opacity="0.6581"/>
<stop offset="0.589" stop-color="white" stop-opacity="0.411"/>
<stop offset="1" stop-color="#F9F9F9" stop-opacity="0"/>
</linearGradient>
<linearGradient id="paint1_linear_232_217" x1="318.055" y1="80.424" x2="338.213" y2="57.2461" gradientUnits="userSpaceOnUse">
<stop stop-color="#F6F8FA"/>
<stop offset="0.1388" stop-color="#E1E8F1" stop-opacity="0.8612"/>
<stop offset="0.3419" stop-color="#F8FBFF" stop-opacity="0.6581"/>
<stop offset="0.589" stop-color="#F6FAFE" stop-opacity="0.411"/>
<stop offset="1" stop-color="#F1F5F9" stop-opacity="0"/>
</linearGradient>
<linearGradient id="paint2_linear_232_217" x1="131.537" y1="743.119" x2="111.379" y2="719.941" gradientUnits="userSpaceOnUse">
<stop stop-color="#E2E5EA"/>
<stop offset="0.1388" stop-color="#D8E4F3" stop-opacity="0.8612"/>
<stop offset="0.3419" stop-color="#DEE8F3" stop-opacity="0.6581"/>
<stop offset="0.589" stop-color="#BEC9D6" stop-opacity="0.411"/>
<stop offset="1" stop-color="#ECF1F6" stop-opacity="0"/>
</linearGradient>
<linearGradient id="paint3_linear_232_217" x1="650.443" y1="40.0735" x2="670.601" y2="63.2514" gradientUnits="userSpaceOnUse">
<stop stop-color="#F7F9FC"/>
<stop offset="0.1388" stop-color="#F6F8FB" stop-opacity="0.8612"/>
<stop offset="0.3419" stop-color="#F3F9FF" stop-opacity="0.6581"/>
<stop offset="0.589" stop-color="#F5F8FD" stop-opacity="0.411"/>
<stop offset="1" stop-color="#F2F6FC" stop-opacity="0"/>
</linearGradient>
<radialGradient id="paint4_radial_232_217" cx="0" cy="0" r="1" gradientUnits="userSpaceOnUse" gradientTransform="translate(358.791 380.877) rotate(-21.934) scale(88.2102 41.7582)">
<stop stop-color="white"/>
<stop offset="1" stop-color="white" stop-opacity="0"/>
</radialGradient>
<radialGradient id="paint5_radial_232_217" cx="0" cy="0" r="1" gradientUnits="userSpaceOnUse" gradientTransform="translate(387.624 205.13) scale(3.61718 4.55354)">
<stop stop-color="white"/>
<stop offset="0.022588" stop-color="#FCFDFE"/>
<stop offset="1" stop-color="#84AADA"/>
</radialGradient>
<radialGradient id="paint6_radial_232_217" cx="0" cy="0" r="1" gradientUnits="userSpaceOnUse" gradientTransform="translate(346.697 458.619) rotate(180) scale(3.06306 3.85597)">
<stop stop-color="white"/>
<stop offset="0.022588" stop-color="#FCFDFE"/>
<stop offset="1" stop-color="#B08EC5"/>
</radialGradient>
<radialGradient id="paint7_radial_232_217" cx="0" cy="0" r="1" gradientUnits="userSpaceOnUse" gradientTransform="translate(513.693 279.618) rotate(51.5375) scale(5.48676 5.34452)">
<stop stop-color="white"/>
<stop offset="0.33" stop-color="#FCFDFE"/>
<stop offset="1" stop-color="#BA9ACD"/>
</radialGradient>
<radialGradient id="paint8_radial_232_217" cx="0" cy="0" r="1" gradientUnits="userSpaceOnUse" gradientTransform="translate(128.476 462.021) rotate(-128.462) scale(6.09728 5.9392)">
<stop stop-color="white"/>
<stop offset="0.022588" stop-color="#FCFDFE"/>
<stop offset="1" stop-color="#84AADA"/>
</radialGradient>
<radialGradient id="paint9_radial_232_217" cx="0" cy="0" r="1" gradientUnits="userSpaceOnUse" gradientTransform="translate(358.769 380.91) rotate(-21.9327) scale(357.432 209.837)">
<stop stop-color="white"/>
<stop offset="1" stop-color="white" stop-opacity="0"/>
</radialGradient>
</defs>
</svg>
