<svg width="568" height="882" viewBox="0 0 568 882" fill="none" xmlns="http://www.w3.org/2000/svg">
<path d="M0.335449 844.938H399.612V0.350891H0.335449V844.938Z" fill="#F3F2F1" style="fill:#F3F2F1;fill:color(display-p3 0.9529 0.9490 0.9451);fill-opacity:1;"/>
<path d="M399.832 844.919C399.831 840.575 399.646 493.2 399.382 0.499512L399.832 0.968323C276.34 0.977905 141.248 0.987427 0.534164 0.997009H0.475614L0.951228 0.499512C0.903666 326.646 0.859777 623.859 0.828679 844.919L0.475614 844.548C246.777 844.777 397.034 844.917 399.832 844.919C397.035 844.921 246.777 845.061 0.475614 845.286L0.122571 845.289V844.919C0.0914731 623.859 0.0475619 326.646 0 0.499512V0.00012207H0.475614H0.534164C141.248 0.00970459 276.34 0.0192871 399.832 0.0288086H400.282V0.499512C400.021 493.2 399.834 840.58 399.832 844.919Z" fill="#17282F" style="fill:#17282F;fill:color(display-p3 0.0902 0.1569 0.1843);fill-opacity:1;"/>
<path d="M28.8311 815.814H371.451V29.8256H28.8311V815.814Z" fill="#332443" style="fill:#332443;fill:color(display-p3 0.2000 0.1412 0.2627);fill-opacity:1;"/>
<path d="M208.626 370.888C203.773 370.888 198.952 370.179 194.344 368.553C183.71 364.797 174.466 355.502 172.507 343.918C170.059 329.457 178.93 315.549 188.989 305.327C199.049 295.105 210.997 286.344 217.705 273.451C224.412 260.557 223.329 241.425 210.97 234.51C206.72 232.133 201.881 231.568 197.006 231.568C194.975 231.568 192.937 231.668 190.931 231.773C175.312 232.591 159.693 233.411 144.074 234.232C139.578 234.468 134.964 234.663 130.347 234.663C114.507 234.663 98.6066 232.367 87.1281 221.537C73.6837 208.856 73.8152 195.645 75.6241 176.781C80.32 127.826 114.783 75.2451 159.819 61.3894C173.905 55.7831 189.932 53.6857 205.744 53.6857C216.313 53.6857 226.788 54.6223 236.52 56.0761C245.979 57.4877 256.644 60.2536 261.119 69.1026C264.956 76.6894 262.657 86.2547 258.205 93.4623C253.754 100.672 247.41 106.349 242.255 113.022C233.976 123.74 229.399 140.682 238.548 150.59C243.397 155.84 249.907 157.148 256.962 157.148C260.465 157.148 264.101 156.825 267.733 156.503C271.366 156.181 274.995 155.859 278.485 155.859C278.867 155.859 279.247 155.863 279.625 155.871C300.393 156.315 319.116 172.285 327.148 192.366C335.179 212.447 333.655 235.696 326.653 256.196C319.651 276.696 307.568 294.846 294.635 311.885C276.562 335.695 255.208 358.796 227.458 367.722C221.378 369.678 214.971 370.89 208.626 370.888ZM213.999 322.448L213.691 323.104C213.342 323.839 212.802 324.454 212.132 324.877L211.534 325.255L212.159 325.578C212.861 325.942 213.448 326.507 213.851 327.21L214.211 327.836L214.52 327.181C214.865 326.446 215.406 325.831 216.077 325.408L216.674 325.03L216.049 324.707C215.348 324.345 214.761 323.778 214.357 323.075L213.999 322.448ZM260.507 190.24L259.929 191.462C259.284 192.834 258.276 193.983 257.026 194.77L255.911 195.473L257.077 196.076C258.386 196.756 259.48 197.813 260.231 199.124L260.903 200.29L261.479 199.07C262.126 197.699 263.134 196.549 264.384 195.762L265.499 195.059L264.335 194.456C263.025 193.778 261.93 192.719 261.177 191.408L260.507 190.24Z" fill="#572E55" style="fill:#572E55;fill:color(display-p3 0.3412 0.1804 0.3333);fill-opacity:1;"/>
<path d="M123.878 144.965C104.896 144.965 89.5073 128.945 89.5073 109.184C89.5073 101.442 91.8787 94.2782 95.8946 88.4237C87.1634 94.9126 81.4644 105.538 81.4644 117.557C81.4644 137.318 96.8527 153.338 115.835 153.338C127.38 153.338 137.587 147.405 143.82 138.317C138.196 142.496 131.315 144.965 123.878 144.965Z" fill="white" style="fill:white;fill-opacity:1;"/>
<path d="M223.273 814.922L102.92 815.463V417.907H223.273V814.922Z" fill="#A69CAC" style="fill:#A69CAC;fill:color(display-p3 0.6510 0.6118 0.6745);fill-opacity:1;"/>
<path d="M223.273 815.55L163.265 815.814V417.907H223.273V815.55Z" fill="#A69CAC" style="fill:#A69CAC;fill:color(display-p3 0.6510 0.6118 0.6745);fill-opacity:1;"/>
<path d="M159.241 417.907H116.665V378.608H159.241V417.907Z" fill="#A69CAC" style="fill:#A69CAC;fill:color(display-p3 0.6510 0.6118 0.6745);fill-opacity:1;"/>
<path d="M159.241 417.907H149.184V378.608H159.241V417.907Z" fill="#17282F" style="fill:#17282F;fill:color(display-p3 0.0902 0.1569 0.1843);fill-opacity:1;"/>
<path d="M93.1982 417.907H226.626V415.451H93.1982V417.907Z" fill="#17282F" style="fill:#17282F;fill:color(display-p3 0.0902 0.1569 0.1843);fill-opacity:1;"/>
<path d="M163.264 601.773C163.264 601.966 149.754 602.123 133.093 602.123C116.425 602.123 102.92 601.966 102.92 601.773C102.92 601.579 116.425 601.422 133.093 601.422C149.754 601.422 163.264 601.579 163.264 601.773Z" fill="#33535F" style="fill:#33535F;fill:color(display-p3 0.2000 0.3255 0.3725);fill-opacity:1;"/>
<path d="M137.115 638.265H126.723V615.808H137.115V638.265Z" fill="#33535F" style="fill:#33535F;fill:color(display-p3 0.2000 0.3255 0.3725);fill-opacity:1;"/>
<path d="M163.264 647.037C163.264 647.231 149.754 647.388 133.093 647.388C116.425 647.388 102.92 647.231 102.92 647.037C102.92 646.844 116.425 646.686 133.093 646.686C149.754 646.686 163.264 646.844 163.264 647.037Z" fill="#33535F" style="fill:#33535F;fill:color(display-p3 0.2000 0.3255 0.3725);fill-opacity:1;"/>
<path d="M137.115 683.529H126.723V661.072H137.115V683.529Z" fill="#33535F" style="fill:#33535F;fill:color(display-p3 0.2000 0.3255 0.3725);fill-opacity:1;"/>
<path d="M163.264 692.302C163.264 692.497 149.754 692.652 133.093 692.652C116.425 692.652 102.92 692.497 102.92 692.302C102.92 692.109 116.425 691.951 133.093 691.951C149.754 691.951 163.264 692.109 163.264 692.302Z" fill="#33535F" style="fill:#33535F;fill:color(display-p3 0.2000 0.3255 0.3725);fill-opacity:1;"/>
<path d="M137.115 728.443H126.723V706.337H137.115V728.443Z" fill="#33535F" style="fill:#33535F;fill:color(display-p3 0.2000 0.3255 0.3725);fill-opacity:1;"/>
<path d="M160.582 815.463H29.4018L28.8311 598.614H160.012L160.582 815.463Z" fill="#A69CAC" style="fill:#A69CAC;fill:color(display-p3 0.6510 0.6118 0.6745);fill-opacity:1;"/>
<path d="M159.912 815.463H94.2036V598.614H159.912V815.463Z" fill="#A69CAC" style="fill:#A69CAC;fill:color(display-p3 0.6510 0.6118 0.6745);fill-opacity:1;"/>
<path d="M90.1811 598.614H43.582V556.157H90.1811V598.614Z" fill="#A69CAC" style="fill:#A69CAC;fill:color(display-p3 0.6510 0.6118 0.6745);fill-opacity:1;"/>
<path d="M163.6 598.614H29.1665V596.158H163.6V598.614Z" fill="#17282F" style="fill:#17282F;fill:color(display-p3 0.0902 0.1569 0.1843);fill-opacity:1;"/>
<path d="M149.519 413.696C149.334 413.696 149.184 406.234 149.184 397.03C149.184 387.824 149.334 380.362 149.519 380.362C149.705 380.362 149.854 387.824 149.854 397.03C149.854 406.234 149.705 413.696 149.519 413.696Z" fill="#33535F" style="fill:#33535F;fill:color(display-p3 0.2000 0.3255 0.3725);fill-opacity:1;"/>
<path d="M167.287 414.924C167.287 415.215 156.03 415.451 142.146 415.451C128.256 415.451 117 415.215 117 414.924C117 414.635 128.256 414.399 142.146 414.399C156.03 414.399 167.287 414.635 167.287 414.924Z" fill="#33535F" style="fill:#33535F;fill:color(display-p3 0.2000 0.3255 0.3725);fill-opacity:1;"/>
<path d="M223.273 418.959C223.273 419.153 196.403 419.311 163.267 419.311C130.118 419.311 103.255 419.153 103.255 418.959C103.255 418.767 130.118 418.609 163.267 418.609C196.403 418.609 223.273 418.767 223.273 418.959Z" fill="#33535F" style="fill:#33535F;fill:color(display-p3 0.2000 0.3255 0.3725);fill-opacity:1;"/>
<path d="M29.3556 596.277C29.3556 596.261 29.5821 596.245 30.0276 596.229C30.517 596.218 31.1689 596.202 31.9961 596.182C33.7837 596.162 36.3255 596.133 39.5739 596.095C46.2133 596.061 55.7267 596.009 67.4734 595.948C91.0945 595.912 123.676 595.861 159.77 595.807H160.247V596.277C160.247 596.924 160.247 597.627 160.247 598.329C160.247 598.747 160.247 599.165 160.247 599.548V600.018H159.77C123.473 599.964 90.6763 599.914 66.8927 599.879C55.0639 599.816 45.4792 599.764 38.7924 599.73C35.5184 599.692 32.9583 599.663 31.1561 599.642C30.3234 599.622 29.6661 599.608 29.1712 599.597C28.7238 599.581 28.4956 599.564 28.4956 599.548C28.4956 599.532 28.7238 599.518 29.1712 599.501C29.6661 599.489 30.3234 599.474 31.1561 599.455C32.9583 599.435 35.5184 599.404 38.7924 599.368C45.4792 599.332 55.0639 599.282 66.8927 599.219C90.6763 599.183 123.473 599.134 159.77 599.078L159.296 599.548C159.296 599.165 159.296 598.747 159.296 598.329C159.296 597.627 159.296 596.924 159.296 596.277L159.77 596.745C123.676 596.69 91.0945 596.641 67.4734 596.605C55.7267 596.542 46.2133 596.493 39.5739 596.457C36.3255 596.419 33.7837 596.391 31.9961 596.371C31.1689 596.351 30.517 596.335 30.0276 596.324C29.5821 596.308 29.3556 596.293 29.3556 596.277Z" fill="#33535F" style="fill:#33535F;fill:color(display-p3 0.2000 0.3255 0.3725);fill-opacity:1;"/>
<path d="M160.449 815.463C160.174 815.463 159.933 766.916 159.914 707.045C159.892 647.152 160.102 598.614 160.38 598.614C160.655 598.614 160.896 647.152 160.917 707.043C160.934 766.916 160.726 815.463 160.449 815.463Z" fill="#33535F" style="fill:#33535F;fill:color(display-p3 0.2000 0.3255 0.3725);fill-opacity:1;"/>
<path d="M360.723 815.009L212.21 815.463V610.194H360.723V815.009Z" fill="#A69CAC" style="fill:#A69CAC;fill:color(display-p3 0.6510 0.6118 0.6745);fill-opacity:1;"/>
<path d="M290.992 610.194V815.009L360.723 815.463V610.194H290.992Z" fill="#A69CAC" style="fill:#A69CAC;fill:color(display-p3 0.6510 0.6118 0.6745);fill-opacity:1;"/>
<path d="M371.786 611.948H200.812V604.58H371.786V611.948Z" fill="#17282F" style="fill:#17282F;fill:color(display-p3 0.0902 0.1569 0.1843);fill-opacity:1;"/>
<path d="M371.659 611.802C371.651 611.794 371.642 611.641 371.635 611.339C371.629 611.003 371.618 610.558 371.606 609.975C371.589 608.729 371.566 606.905 371.533 604.421L371.659 604.555C351.683 604.765 282.77 604.92 200.961 604.92H200.954C201.166 604.698 200.477 605.417 201.427 604.421V604.423V604.426V604.442V604.472V604.532V604.65V604.887V605.361V606.307C201.427 606.936 201.427 607.561 201.427 608.178C201.427 609.419 201.427 610.632 201.427 611.802L200.952 611.305C248.366 611.385 290.964 611.458 321.755 611.509C337.148 611.574 349.588 611.624 358.226 611.66C362.507 611.691 365.843 611.716 368.155 611.731C369.266 611.745 370.127 611.758 370.752 611.766C371.341 611.777 371.659 611.802 371.659 611.802C371.659 611.802 371.386 611.825 370.818 611.836C370.209 611.844 369.369 611.857 368.285 611.873C366 611.888 362.701 611.911 358.466 611.943C349.855 611.98 337.456 612.029 322.11 612.092C291.227 612.144 248.505 612.219 200.952 612.299H200.477V611.802C200.477 610.632 200.477 609.419 200.477 608.178C200.477 607.561 200.477 606.936 200.477 606.307V605.361V604.887V604.65V604.532V604.472V604.442V604.426V604.423V604.421C201.427 603.427 200.74 604.146 200.954 603.924H200.961C282.77 603.924 351.683 604.079 371.659 604.289L371.787 604.291L371.785 604.421C371.752 606.94 371.728 608.79 371.712 610.051C371.701 610.623 371.692 611.055 371.682 611.385C371.675 611.672 371.666 611.81 371.659 611.802Z" fill="#A69CAC" style="fill:#A69CAC;fill:color(display-p3 0.6510 0.6118 0.6745);fill-opacity:1;"/>
<path d="M167.445 217.901L167.156 217.953C166.623 218.154 166.435 218.977 166.823 219.406C167.211 219.835 168.012 219.688 168.235 219.146C168.459 218.606 168.01 217.9 167.445 217.901Z" fill="white" style="fill:white;fill-opacity:1;"/>
<path d="M239.186 106.67L238.897 106.722C238.367 106.923 238.177 107.746 238.565 108.175C238.952 108.603 239.753 108.456 239.977 107.916C240.201 107.375 239.751 106.668 239.186 106.67Z" fill="white" style="fill:white;fill-opacity:1;"/>
<path d="M338.419 179.304L338.131 179.357C337.597 179.558 337.409 180.379 337.799 180.807C338.184 181.237 338.985 181.09 339.209 180.549C339.433 180.01 338.985 179.302 338.419 179.304Z" fill="white" style="fill:white;fill-opacity:1;"/>
<path d="M296.85 292.64L296.561 292.692C296.029 292.893 295.839 293.716 296.227 294.145C296.614 294.574 297.415 294.426 297.639 293.885C297.862 293.345 297.415 292.638 296.85 292.64Z" fill="white" style="fill:white;fill-opacity:1;"/>
<path d="M338.754 425.627L338.467 425.679C337.933 425.88 337.745 426.701 338.131 427.13C338.52 427.561 339.32 427.414 339.544 426.872C339.768 426.332 339.32 425.625 338.754 425.627Z" fill="white" style="fill:white;fill-opacity:1;"/>
<path d="M62.1765 178.602L61.8889 178.664C61.3567 178.905 61.1672 179.891 61.5547 180.407C61.944 180.922 62.7431 180.745 62.967 180.095C63.1909 179.445 62.7431 178.6 62.1765 178.602Z" fill="white" style="fill:white;fill-opacity:1;"/>
<path d="M335.067 75.7915L334.778 75.8435C334.247 76.0444 334.056 76.8658 334.445 77.2962C334.831 77.7249 335.633 77.5779 335.857 77.0362C336.081 76.4945 335.633 75.7897 335.067 75.7915Z" fill="white" style="fill:white;fill-opacity:1;"/>
<path d="M282.099 451.592L281.81 451.644C281.276 451.845 281.088 452.668 281.477 453.097C281.863 453.526 282.664 453.379 282.888 452.837C283.112 452.297 282.664 451.59 282.099 451.592Z" fill="white" style="fill:white;fill-opacity:1;"/>
<path d="M338.083 562.122L337.796 562.187C337.262 562.425 337.074 563.412 337.46 563.928C337.849 564.442 338.649 564.266 338.873 563.616C339.097 562.967 338.65 562.122 338.083 562.122Z" fill="white" style="fill:white;fill-opacity:1;"/>
<path d="M77.935 519.314L77.6457 519.376C77.1135 519.617 76.9241 520.605 77.3116 521.119C77.6991 521.634 78.4999 521.457 78.7238 520.807C78.9477 520.159 78.4999 519.311 77.935 519.314Z" fill="white" style="fill:white;fill-opacity:1;"/>
<path d="M148.336 300.36L148.047 300.414C147.514 300.612 147.325 301.435 147.714 301.865C148.102 302.293 148.903 302.146 149.125 301.605C149.349 301.064 148.903 300.36 148.336 300.36Z" fill="white" style="fill:white;fill-opacity:1;"/>
<path d="M319.646 248.779L319.357 248.833C318.826 249.034 318.635 249.855 319.024 250.283C319.412 250.713 320.212 250.566 320.436 250.025C320.66 249.484 320.212 248.777 319.646 248.779Z" fill="white" style="fill:white;fill-opacity:1;"/>
<path d="M69.8889 337.905L69.5995 337.967C69.0672 338.208 68.8777 339.196 69.267 339.711C69.6546 340.225 70.454 340.049 70.6779 339.399C70.9019 338.751 70.454 337.903 69.8889 337.905Z" fill="white" style="fill:white;fill-opacity:1;"/>
<path d="M199.292 377.555L199.002 377.609C198.472 377.808 198.283 378.631 198.67 379.059C199.058 379.488 199.858 379.343 200.082 378.801C200.306 378.26 199.857 377.553 199.292 377.555Z" fill="white" style="fill:white;fill-opacity:1;"/>
<path d="M60.2685 435.451L61.0892 436.877C62.0109 438.48 63.3511 439.771 64.9521 440.599L66.3786 441.337L65.0145 442.196C63.4833 443.159 62.2495 444.564 61.4582 446.239L60.7532 447.732L59.9326 446.305C59.0109 444.704 57.6707 443.411 56.0697 442.582L54.645 441.845L56.0073 440.984C57.5385 440.021 58.7722 438.618 59.5635 436.943L60.2685 435.451Z" fill="white" style="fill:white;fill-opacity:1;"/>
<path d="M89.7728 236.498L90.5933 237.926C91.513 239.527 92.853 240.818 94.4537 241.648L95.8801 242.386L94.5161 243.245C92.987 244.21 91.7516 245.612 90.9605 247.288L90.2556 248.779L89.435 247.353C88.5154 245.751 87.1753 244.459 85.5728 243.631L84.1465 242.891L85.5104 242.032C87.0413 241.07 88.2749 239.667 89.0661 237.991L89.7728 236.498Z" fill="white" style="fill:white;fill-opacity:1;"/>
<path d="M168.891 82.1076L169.712 83.5334C170.631 85.1361 171.971 86.4274 173.572 87.2557L174.998 87.9935L173.634 88.8524C172.105 89.8171 170.872 91.2199 170.079 92.8956L169.374 94.3887L168.553 92.961C167.634 91.3583 166.294 90.067 164.691 89.2387L163.265 88.5009L164.629 87.6419C166.159 86.6772 167.393 85.2744 168.186 83.5987L168.891 82.1076Z" fill="white" style="fill:white;fill-opacity:1;"/>
<path d="M278.177 350.186L279 351.613C279.921 353.214 281.26 354.507 282.861 355.335L284.287 356.073L282.923 356.931C281.392 357.896 280.158 359.299 279.367 360.974L278.662 362.467L277.841 361.039C276.921 359.439 275.579 358.146 273.978 357.318L272.554 356.58L273.916 355.719C275.447 354.757 276.681 353.354 277.474 351.679L278.177 350.186Z" fill="white" style="fill:white;fill-opacity:1;"/>
<path d="M214.158 327.729L213.806 327.117C213.411 326.43 212.837 325.879 212.15 325.523L211.539 325.207L212.124 324.838C212.78 324.425 213.307 323.824 213.648 323.106L213.951 322.466L214.301 323.078C214.696 323.764 215.27 324.318 215.956 324.672L216.568 324.988L215.983 325.356C215.327 325.77 214.798 326.371 214.46 327.089L214.158 327.729Z" fill="#789297" style="fill:#789297;fill:color(display-p3 0.4706 0.5725 0.5922);fill-opacity:1;"/>
<path d="M330.775 316.15L331.151 316.762C331.573 317.448 332.185 318.002 332.915 318.358L333.569 318.674L332.946 319.041C332.246 319.454 331.681 320.055 331.319 320.773L330.997 321.413L330.623 320.801C330.2 320.116 329.589 319.563 328.857 319.207L328.205 318.891L328.829 318.522C329.528 318.109 330.093 317.508 330.453 316.79L330.775 316.15Z" fill="white" style="fill:white;fill-opacity:1;"/>
<path d="M219.139 256.148L219.514 256.801C219.936 257.532 220.548 258.123 221.278 258.502L221.932 258.839L221.309 259.233C220.609 259.674 220.045 260.315 219.682 261.081L219.36 261.762L218.984 261.111C218.563 260.379 217.951 259.788 217.219 259.408L216.568 259.071L217.192 258.68C217.892 258.238 218.456 257.597 218.817 256.831L219.139 256.148Z" fill="white" style="fill:white;fill-opacity:1;"/>
<path d="M282.339 129.477L282.692 130.089C283.087 130.776 283.66 131.33 284.347 131.685L284.958 132.001L284.374 132.368C283.718 132.782 283.189 133.384 282.849 134.101L282.547 134.741L282.196 134.129C281.801 133.442 281.228 132.888 280.541 132.535L279.93 132.217L280.512 131.85C281.17 131.436 281.698 130.836 282.037 130.117L282.339 129.477Z" fill="white" style="fill:white;fill-opacity:1;"/>
<path d="M258.203 534.402L258.555 535.014C258.948 535.7 259.524 536.254 260.209 536.61L260.821 536.926L260.238 537.293C259.581 537.706 259.052 538.307 258.714 539.025L258.41 539.665L258.058 539.055C257.664 538.367 257.088 537.815 256.404 537.459L255.792 537.143L256.377 536.774C257.031 536.361 257.561 535.76 257.9 535.042L258.203 534.402Z" fill="white" style="fill:white;fill-opacity:1;"/>
<path d="M95.9447 351.589L96.2951 352.201C96.6902 352.888 97.2641 353.44 97.9505 353.795L98.5619 354.111L97.9773 354.48C97.323 354.894 96.7939 355.494 96.4542 356.213L96.1521 356.853L95.8 356.241C95.4049 355.554 94.831 355 94.1446 354.645L93.5332 354.33L94.1196 353.962C94.7738 353.548 95.303 352.948 95.6426 352.229L95.9447 351.589Z" fill="white" style="fill:white;fill-opacity:1;"/>
<path d="M261.015 200.357L260.356 199.176C259.621 197.849 258.549 196.779 257.268 196.09L256.127 195.479L257.218 194.768C258.442 193.971 259.429 192.807 260.061 191.419L260.626 190.181L261.283 191.364C262.02 192.691 263.092 193.763 264.374 194.45L265.514 195.061L264.423 195.772C263.199 196.569 262.211 197.733 261.578 199.122L261.015 200.357Z" fill="#789297" style="fill:#789297;fill:color(display-p3 0.4706 0.5725 0.5922);fill-opacity:1;"/>
<path d="M316.27 506.682L315.606 505.551C315.204 504.866 314.704 504.253 314.124 503.732C315.545 502.579 316.895 501.338 318.165 500.015C318.624 500.41 319.131 500.75 319.673 501.027L320.829 501.611L319.725 502.293C318.484 503.056 317.484 504.17 316.842 505.499L316.27 506.682Z" fill="#6A858C" style="fill:#6A858C;fill:color(display-p3 0.4157 0.5216 0.5490);fill-opacity:1;"/>
<path d="M289.075 513.349C288.695 513.349 288.312 513.343 287.93 513.329C273.981 512.862 260.053 503.554 255.824 489.593C251.739 476.106 257.186 460.904 266.674 450.85C276.165 440.797 286.12 436.05 299.062 432.077C300.068 431.987 301.047 431.943 301.998 431.943C325.253 431.943 332.277 458.527 329.198 477.834C327.856 486.25 323.804 493.956 318.123 500.023C317.478 499.457 316.927 498.781 316.49 498.018L315.82 496.849L315.243 498.071C314.596 499.444 313.588 500.592 312.338 501.384L311.225 502.085L312.391 502.689C312.993 503.003 313.552 503.396 314.05 503.86C306.952 509.755 298.127 513.349 289.075 513.349ZM282.085 451.5H282.083L281.776 451.556C281.21 451.77 281.011 452.65 281.424 453.108C281.586 453.29 281.818 453.375 282.054 453.375C282.412 453.375 282.777 453.179 282.919 452.83C283.157 452.253 282.684 451.5 282.085 451.5Z" fill="#572E55" style="fill:#572E55;fill:color(display-p3 0.3412 0.1804 0.3333);fill-opacity:1;"/>
<path d="M282.071 453.347C281.849 453.347 281.631 453.268 281.477 453.097C281.088 452.669 281.276 451.845 281.81 451.644L282.099 451.592H282.101C282.666 451.592 283.112 452.297 282.888 452.837C282.753 453.164 282.409 453.347 282.071 453.347Z" fill="white" style="fill:white;fill-opacity:1;"/>
<path d="M313.991 503.875C313.482 503.41 312.912 503.017 312.297 502.702L311.107 502.098L312.243 501.396C313.519 500.604 314.548 499.454 315.208 498.081L315.797 496.857L316.481 498.027C316.927 498.791 317.49 499.468 318.148 500.034C316.841 501.402 315.452 502.683 313.991 503.875Z" fill="#789297" style="fill:#789297;fill:color(display-p3 0.4706 0.5725 0.5922);fill-opacity:1;"/>
<path d="M400.614 3.86373C400.799 4.05665 394.646 10.8109 386.872 18.9463C379.096 27.0854 372.647 33.5245 372.461 33.3297C372.276 33.1348 378.427 26.3825 386.205 18.2433C393.976 10.108 400.43 3.66889 400.614 3.86373Z" fill="#17282F" style="fill:#17282F;fill:color(display-p3 0.0902 0.1569 0.1843);fill-opacity:1;"/>
<path d="M371.335 815.803C371.331 811.394 371.146 487.315 370.883 29.972L371.335 30.4449C265.052 30.4525 149.141 30.462 28.6893 30.4697H28.6362L29.1137 29.972C29.0624 335.108 29.0167 612.311 28.982 815.803L28.6362 815.441C240.238 815.665 368.615 815.8 371.335 815.803C368.617 815.806 240.238 815.94 28.6362 816.165H28.2905V815.803C28.2576 612.311 28.21 335.108 28.1606 29.972V29.4744H28.6362H28.6893C149.141 29.4821 265.052 29.4916 371.335 29.4992H371.787V29.972C371.525 487.315 371.337 811.398 371.335 815.803Z" fill="#17282F" style="fill:#17282F;fill:color(display-p3 0.0902 0.1569 0.1843);fill-opacity:1;"/>
<path d="M29.8366 33.3169C29.5311 33.7103 22.9613 27.2434 15.14 19.0696C11.2256 14.976 7.73087 11.2222 5.23726 8.46704C2.7418 5.71379 1.25115 3.95914 1.34501 3.86368C1.43886 3.7663 3.1025 5.34528 5.71942 7.97442C8.33633 10.6017 11.9065 14.2791 15.8209 18.3708C19.6082 22.3746 23.033 25.9947 25.7806 28.9026C26.9142 30.1265 27.9061 31.1957 28.7674 32.1256C29.1649 32.5666 29.4962 32.9351 29.8366 33.3169Z" fill="#17282F" style="fill:#17282F;fill:color(display-p3 0.0902 0.1569 0.1843);fill-opacity:1;"/>
<path d="M28.8272 815.818C29.0131 816.011 22.7882 822.686 14.922 830.724C7.05392 838.765 0.525428 845.124 0.339583 844.933C0.151898 844.738 6.37863 838.067 14.2467 830.026C22.111 821.988 28.6414 815.625 28.8272 815.818Z" fill="#17282F" style="fill:#17282F;fill:color(display-p3 0.0902 0.1569 0.1843);fill-opacity:1;"/>
<path d="M399.608 844.933C399.425 845.128 392.897 838.77 385.031 830.732C377.161 822.69 370.935 816.015 371.12 815.818C371.304 815.623 377.83 821.979 385.7 830.02C393.566 838.057 399.793 844.736 399.608 844.933Z" fill="#17282F" style="fill:#17282F;fill:color(display-p3 0.0902 0.1569 0.1843);fill-opacity:1;"/>
<path d="M385.532 304.57H26.4844V301.061H385.532V304.57Z" fill="#F3F2F1" style="fill:#F3F2F1;fill:color(display-p3 0.9529 0.9490 0.9451);fill-opacity:1;"/>
<path d="M385.532 658.265H26.4844V654.756H385.532V658.265Z" fill="#F3F2F1" style="fill:#F3F2F1;fill:color(display-p3 0.9529 0.9490 0.9451);fill-opacity:1;"/>
<path d="M204.164 15.439V839.323H199.806V15.439H204.164Z" fill="#F3F2F1" style="fill:#F3F2F1;fill:color(display-p3 0.9529 0.9490 0.9451);fill-opacity:1;"/>
<path d="M550.641 779.485C550.641 779.485 551.576 785.599 553.679 789.269C555.78 792.939 556.247 800.523 556.013 805.414C555.78 810.306 555.546 823.759 557.415 827.675C559.283 831.588 564.961 839.172 566.523 845.043C568.087 850.912 568.625 858.987 566.523 864.124C564.422 869.26 562.533 876.843 559.272 878.065C556.013 879.29 545.97 878.065 545.97 878.065C545.97 878.065 545.97 874.397 547.371 873.173C548.774 871.951 553.679 869.504 554.145 865.589C554.612 861.676 555.312 855.071 555.312 855.071C555.312 855.071 543.401 849.933 537.329 843.818C531.257 837.704 523.55 829.046 523.55 829.046C523.55 829.046 520.981 838.926 518.645 843.574C516.31 848.223 517.945 852.136 518.645 853.849C519.346 855.561 510.472 865.756 500.662 873.419C490.854 881.079 482.679 876.353 482.679 876.353C482.679 876.353 481.278 869.993 483.847 868.769C486.415 867.547 491.554 868.038 491.554 868.038C491.554 868.038 503.698 858.741 502.297 851.891C500.896 845.043 496.692 837.214 496.225 832.077C495.759 826.941 495.525 824.494 495.525 824.494C495.525 824.494 481.633 826.452 472.814 825.962C463.997 825.473 458.624 823.516 458.624 823.516C458.624 823.516 454.653 848.956 457.221 852.626C459.792 856.295 467.966 863.145 468.666 867.792C469.367 872.439 468.198 879.153 463.061 878.609C457.923 878.065 458.156 874.885 458.39 870.484C458.39 870.484 451.149 862.9 449.516 859.965C447.881 857.031 439.006 831.343 439.006 831.343C439.006 831.343 425.225 859.23 424.759 864.124C424.292 869.014 420.556 872.439 419.621 872.685C418.687 872.928 416.585 881.079 413.315 881.079C410.045 881.079 402.106 879.535 402.106 879.535C402.106 879.535 402.339 874.152 405.843 872.439C409.345 870.727 414.248 869.993 414.248 862.9C414.248 855.807 418.219 827.918 417.986 826.941C417.752 825.962 410.512 812.019 409.345 807.126C408.176 802.233 405.609 790.982 405.609 790.982C405.609 790.982 400.938 775.569 397.199 771.656C393.463 767.742 388.094 767.742 384.123 767.252C380.153 766.763 379.957 765.053 378.75 762.361C377.543 759.67 374.82 753.799 376.182 753.065C377.543 752.331 384.822 749.151 385.756 747.684C386.691 746.217 387.391 743.037 390.427 741.813C393.463 740.589 400.938 735.453 404.674 735.453C408.41 735.453 415.651 742.302 417.284 743.77C418.921 745.236 423.592 750.375 426.16 753.799C428.729 757.224 430.598 766.52 440.172 766.763C449.748 767.009 532.192 768.966 536.16 766.52C540.131 764.072 545.27 766.763 546.905 746.951C548.54 727.136 549.474 714.17 547.371 710.989C545.27 707.809 547.371 707.076 543.401 706.342C539.432 705.609 534.527 704.63 533.124 701.695C531.725 698.76 532.658 694.406 536.394 694.406C540.131 694.406 557.415 694.356 560.217 718.328C563.019 742.302 555.546 757.224 553.911 766.52C552.276 775.814 549.827 775.647 550.641 779.485Z" fill="#D0C3D8" style="fill:#D0C3D8;fill:color(display-p3 0.8148 0.7631 0.8458);fill-opacity:1;"/>
<path d="M399.947 737.64C399.298 735.132 397.963 732.806 396.131 730.988C395.628 730.494 394.925 730.001 394.278 730.277C393.655 730.539 393.491 731.337 393.429 732.014C393.136 735.144 393.189 738.308 393.578 741.426" fill="#D0C3D8" style="fill:#D0C3D8;fill:color(display-p3 0.8157 0.7647 0.8471);fill-opacity:1;"/>
<path d="M389.894 742.089C389.781 741.839 392.089 740.395 395.05 738.864C398.011 737.335 400.5 736.298 400.614 736.551C400.726 736.804 398.418 738.246 395.457 739.776C392.5 741.307 390.008 742.342 389.894 742.089Z" fill="#33535F" style="fill:#33535F;fill:color(display-p3 0.2000 0.3255 0.3725);fill-opacity:1;"/>
<path d="M397.6 748.094C397.6 749.06 396.852 749.847 395.925 749.847C394.999 749.847 394.248 749.06 394.248 748.094C394.248 747.125 394.999 746.338 395.925 746.338C396.852 746.338 397.6 747.125 397.6 748.094Z" fill="#33535F" style="fill:#33535F;fill:color(display-p3 0.2000 0.3255 0.3725);fill-opacity:1;"/>
<path d="M399.592 748.59C399.386 748.825 397.962 747.228 395.649 747.316C394.63 747.322 393.846 748.098 393.295 748.633C392.743 749.189 392.39 749.563 392.27 749.486C392.163 749.421 392.304 748.915 392.756 748.198C392.984 747.843 393.301 747.435 393.762 747.054C394.21 746.674 394.892 746.344 395.623 746.338C396.97 746.323 398.185 746.843 398.811 747.444C399.455 748.024 399.684 748.506 399.592 748.59Z" fill="#33535F" style="fill:#33535F;fill:color(display-p3 0.2000 0.3255 0.3725);fill-opacity:1;"/>
</svg>
