<svg width="139" height="61" viewBox="0 0 139 61" fill="none" xmlns="http://www.w3.org/2000/svg">
<path d="M3.34793 49.3633C8.60696 53.7431 12.0789 55.0757 19.0385 57.9094C37.2791 65.3362 62.1244 51.8836 65.7123 34.7591C67.3894 26.755 65.055 16.6143 57.8238 9.73176C56.1315 7.91632 55.8517 7.85471 55.8517 15.3629C55.8517 22.6424 53.3223 30.3624 49.7618 36.6742C42.5415 49.474 24.4251 60.0058 8.91516 53.138C-10.1842 44.6807 10.155 25.9805 19.0385 19.7427C31.6436 10.8917 51.8346 -1.87581 68.513 1.57889C87.049 5.41838 81.9377 26.7564 77.562 38.7776C74.5171 47.143 61.5869 68.5174 73.6794 49.3633C76.3608 45.1161 106.142 8.85202 102.51 27.2397C100.853 35.6308 96.4952 42.9106 93.3243 50.8056C92.096 53.8637 89.2129 58.6205 92.842 53.138C95.6937 48.83 119.082 17.1828 111.808 36.5404C109.479 42.7386 105.609 59.7793 117.661 59.1659C128.882 58.5947 144.169 32.7202 135.395 27.2397" stroke="#FAF9F6" stroke-width="2" stroke-linecap="round"/>
</svg>
