<svg width="658" height="601" viewBox="0 0 658 601" fill="none" xmlns="http://www.w3.org/2000/svg">
<g opacity="0.7">
<path d="M809.18 -185.959C809.545 -191.117 177.828 263.967 113.413 310.776C48.9982 357.584 18.9657 383.38 18.6001 388.538C18.2346 393.696 47.7088 376.278 112.088 329.466C176.538 282.66 808.814 -180.801 809.18 -185.959Z" fill="url(#paint0_linear_232_202)"/>
<path opacity="0.2" d="M204.308 235.43C204.349 232.849 58.7092 337.184 43.8761 348.019C29.0429 358.854 22.1556 365.932 22.1149 368.513C22.0742 371.095 28.8963 368.158 43.7295 357.324C58.5626 346.489 204.267 238.011 204.308 235.43Z" fill="#29ABE2"/>
<path opacity="0.7" d="M115.353 297.682C115.373 296.361 42.4227 348.64 35.0062 354.057C27.5896 359.475 24.0896 363.07 24.1067 364.333C24.0859 365.654 27.5159 364.157 34.9325 358.739C42.349 353.322 115.295 299 115.353 297.682Z" fill="white"/>
<path d="M931.093 -176.576C931.413 -181.101 377.112 218.212 320.592 259.285C264.071 300.357 237.719 322.992 237.398 327.517C237.077 332.043 262.939 316.76 319.429 275.685C375.981 234.615 930.772 -172.05 931.093 -176.576Z" fill="url(#paint1_linear_232_202)"/>
<path opacity="0.2" d="M400.347 193.172C400.383 190.907 272.591 282.457 259.576 291.964C246.561 301.471 240.517 307.682 240.482 309.947C240.446 312.211 246.432 309.635 259.447 300.128C272.463 290.621 400.311 195.437 400.347 193.172Z" fill="#29ABE2"/>
<path opacity="0.7" d="M322.293 247.795C322.311 246.637 258.301 292.509 251.793 297.262C245.285 302.016 242.214 305.17 242.229 306.279C242.211 307.437 245.221 306.124 251.728 301.37C258.236 296.617 322.242 248.952 322.293 247.795Z" fill="white"/>
<path d="M905.959 -79.5106C906.28 -84.0365 351.979 315.277 295.458 356.35C238.937 397.422 212.585 420.056 212.264 424.582C211.944 429.108 237.806 413.825 294.296 372.749C350.847 331.68 905.638 -74.9848 905.959 -79.5106Z" fill="url(#paint2_linear_232_202)"/>
<path opacity="0.2" d="M375.214 290.238C375.249 287.973 247.458 379.522 234.442 389.029C221.427 398.536 215.384 404.747 215.348 407.012C215.312 409.277 221.298 406.701 234.314 397.193C247.329 387.686 375.178 292.502 375.214 290.238Z" fill="#29ABE2"/>
<path opacity="0.7" d="M297.16 344.861C297.178 343.702 233.167 389.574 226.66 394.328C220.152 399.081 217.081 402.236 217.096 403.344C217.078 404.503 220.087 403.189 226.595 398.436C233.103 393.682 297.109 346.017 297.16 344.861Z" fill="white"/>
</g>
<defs>
<linearGradient id="paint0_linear_232_202" x1="18.5869" y1="388.542" x2="764.706" y2="441.422" gradientUnits="userSpaceOnUse">
<stop stop-color="white"/>
<stop offset="0.115" stop-color="#A69CAC"/>
<stop offset="0.3419" stop-color="#A69CAC"/>
<stop offset="0.589" stop-color="#A69CAC"/>
<stop offset="1"/>
</linearGradient>
<linearGradient id="paint1_linear_232_202" x1="237.386" y1="327.521" x2="892.069" y2="373.92" gradientUnits="userSpaceOnUse">
<stop stop-color="white"/>
<stop offset="0.115" stop-color="#A69CAC"/>
<stop offset="0.3419" stop-color="#A69CAC"/>
<stop offset="0.589" stop-color="#A69CAC"/>
<stop offset="1"/>
</linearGradient>
<linearGradient id="paint2_linear_232_202" x1="212.253" y1="424.586" x2="866.935" y2="470.985" gradientUnits="userSpaceOnUse">
<stop stop-color="white"/>
<stop offset="0.115" stop-color="#A69CAC"/>
<stop offset="0.3419" stop-color="#A69CAC"/>
<stop offset="0.589" stop-color="#A69CAC"/>
<stop offset="1"/>
</linearGradient>
</defs>
</svg>
