<svg width="744" height="744" viewBox="0 0 744 744" fill="none" xmlns="http://www.w3.org/2000/svg">
<path d="M510 577.375C510 535.746 543.663 502 585.189 502C626.715 502 660.379 535.746 660.379 577.375C660.379 619.003 626.715 652.749 585.189 652.749C543.663 652.749 510 619.003 510 577.375Z" fill="#DCDCDC"/>
<mask id="mask0_301_907" style="mask-type:alpha" maskUnits="userSpaceOnUse" x="510" y="502" width="151" height="151">
<path d="M585.189 652.749C626.715 652.749 660.379 619.003 660.379 577.375C660.379 535.746 626.715 502 585.189 502C543.663 502 510 535.746 510 577.375C510 619.003 543.663 652.749 585.189 652.749Z" fill="#DCDCDC"/>
</mask>
<g mask="url(#mask0_301_907)">
<path d="M594.309 584.892C601.249 584.892 606.875 579.252 606.875 572.296C606.875 565.339 601.249 559.699 594.309 559.699C587.37 559.699 581.744 565.339 581.744 572.296C581.744 579.252 587.37 584.892 594.309 584.892Z" fill="#CCCBCB"/>
<path d="M629.979 598.707C635.799 598.707 640.517 593.977 640.517 588.142C640.517 582.308 635.799 577.578 629.979 577.578C624.158 577.578 619.44 582.308 619.44 588.142C619.44 593.977 624.158 598.707 629.979 598.707Z" fill="#C4C4C4"/>
<path d="M631.803 562.544C636.616 562.544 640.517 558.632 640.517 553.807C640.517 548.983 636.616 545.071 631.803 545.071C626.99 545.071 623.088 548.983 623.088 553.807C623.088 558.632 626.99 562.544 631.803 562.544Z" fill="#C4C4C4"/>
<path d="M614.779 621.868C619.592 621.868 623.493 617.957 623.493 613.132C623.493 608.307 619.592 604.396 614.779 604.396C609.966 604.396 606.064 608.307 606.064 613.132C606.064 617.957 609.966 621.868 614.779 621.868Z" fill="#C4C4C4"/>
<path d="M569.787 582.048C571.466 582.048 572.827 580.683 572.827 579C572.827 577.317 571.466 575.953 569.787 575.953C568.108 575.953 566.747 577.317 566.747 579C566.747 580.683 568.108 582.048 569.787 582.048Z" fill="#C4C4C4"/>
<path d="M574.245 584.892C575.253 584.892 576.069 584.073 576.069 583.063C576.069 582.054 575.253 581.235 574.245 581.235C573.238 581.235 572.421 582.054 572.421 583.063C572.421 584.073 573.238 584.892 574.245 584.892Z" fill="#C4C4C4"/>
<path d="M557.019 563.356C566.421 563.356 574.043 555.715 574.043 546.29C574.043 536.865 566.421 529.224 557.019 529.224C547.617 529.224 539.995 536.865 539.995 546.29C539.995 555.715 547.617 563.356 557.019 563.356Z" fill="#C4C4C4"/>
<path d="M534.523 603.177C545.38 603.177 554.181 594.354 554.181 583.47C554.181 572.586 545.38 563.763 534.523 563.763C523.665 563.763 514.864 572.586 514.864 583.47C514.864 594.354 523.665 603.177 534.523 603.177Z" fill="#C4C4C4"/>
<path d="M569.381 596.676C572.404 596.676 574.853 594.22 574.853 591.19C574.853 588.161 572.404 585.705 569.381 585.705C566.359 585.705 563.909 588.161 563.909 591.19C563.909 594.22 566.359 596.676 569.381 596.676Z" fill="#C4C4C4"/>
<path d="M565.936 627.557C571.085 627.557 575.259 623.372 575.259 618.211C575.259 613.049 571.085 608.865 565.936 608.865C560.787 608.865 556.613 613.049 556.613 618.211C556.613 623.372 560.787 627.557 565.936 627.557Z" fill="#C4C4C4"/>
<path d="M546.48 613.741C548.495 613.741 550.128 612.104 550.128 610.084C550.128 608.065 548.495 606.427 546.48 606.427C544.465 606.427 542.832 608.065 542.832 610.084C542.832 612.104 544.465 613.741 546.48 613.741Z" fill="#C4C4C4"/>
<path d="M544.859 629.588C547.993 629.588 550.533 627.041 550.533 623.9C550.533 620.758 547.993 618.211 544.859 618.211C541.725 618.211 539.184 620.758 539.184 623.9C539.184 627.041 541.725 629.588 544.859 629.588Z" fill="#C4C4C4"/>
<path d="M597.755 525.974C601.001 525.974 603.632 523.336 603.632 520.082C603.632 516.828 601.001 514.19 597.755 514.19C594.509 514.19 591.877 516.828 591.877 520.082C591.877 523.336 594.509 525.974 597.755 525.974Z" fill="#C4C4C4"/>
<path d="M599.781 543.04C601.236 543.04 602.416 541.857 602.416 540.398C602.416 538.94 601.236 537.757 599.781 537.757C598.326 537.757 597.147 538.94 597.147 540.398C597.147 541.857 598.326 543.04 599.781 543.04Z" fill="#C4C4C4"/>
<path d="M596.539 603.583C597.77 603.583 598.768 602.582 598.768 601.348C598.768 600.114 597.77 599.113 596.539 599.113C595.307 599.113 594.309 600.114 594.309 601.348C594.309 602.582 595.307 603.583 596.539 603.583Z" fill="#C4C4C4"/>
<path d="M601.2 668.19C611.721 668.19 620.251 659.64 620.251 649.092C620.251 638.545 611.721 629.995 601.2 629.995C590.679 629.995 582.149 638.545 582.149 649.092C582.149 659.64 590.679 668.19 601.2 668.19Z" fill="#C4C4C4"/>
<path d="M650.651 677.129C705.944 677.129 750.768 632.559 750.768 577.578C750.768 522.597 705.944 478.026 650.651 478.026C595.358 478.026 550.533 522.597 550.533 577.578C550.533 632.559 595.358 677.129 650.651 677.129Z" fill="#535D74" fill-opacity="0.7"/>
</g>
<path d="M591 370.396C591 329.308 624.885 296 666.684 296C708.483 296 742.368 329.308 742.368 370.396C742.368 411.484 708.483 444.792 666.684 444.792C624.885 444.792 591 411.484 591 370.396Z" fill="#DCDCDC"/>
<mask id="mask1_301_907" style="mask-type:alpha" maskUnits="userSpaceOnUse" x="591" y="296" width="152" height="149">
<path d="M666.684 444.792C708.483 444.792 742.368 411.483 742.368 370.396C742.368 329.308 708.483 296 666.684 296C624.885 296 591 329.308 591 370.396C591 411.483 624.885 444.792 666.684 444.792Z" fill="#DCDCDC"/>
</mask>
<g mask="url(#mask1_301_907)">
<path d="M675.864 377.815C682.849 377.815 688.512 372.249 688.512 365.382C688.512 358.516 682.849 352.95 675.864 352.95C668.879 352.95 663.216 358.516 663.216 365.382C663.216 372.249 668.879 377.815 675.864 377.815Z" fill="#CCCBCB"/>
<path d="M711.768 391.451C717.627 391.451 722.376 386.783 722.376 381.024C722.376 375.265 717.627 370.596 711.768 370.596C705.909 370.596 701.16 375.265 701.16 381.024C701.16 386.783 705.909 391.451 711.768 391.451Z" fill="#C4C4C4"/>
<path d="M713.604 355.757C718.449 355.757 722.376 351.897 722.376 347.134C722.376 342.372 718.449 338.512 713.604 338.512C708.759 338.512 704.832 342.372 704.832 347.134C704.832 351.897 708.759 355.757 713.604 355.757Z" fill="#C4C4C4"/>
<path d="M696.468 414.311C701.313 414.311 705.24 410.451 705.24 405.689C705.24 400.926 701.313 397.066 696.468 397.066C691.623 397.066 687.696 400.926 687.696 405.689C687.696 410.451 691.623 414.311 696.468 414.311Z" fill="#C4C4C4"/>
<path d="M651.18 375.008C652.87 375.008 654.24 373.661 654.24 372C654.24 370.339 652.87 368.992 651.18 368.992C649.49 368.992 648.12 370.339 648.12 372C648.12 373.661 649.49 375.008 651.18 375.008Z" fill="#C4C4C4"/>
<path d="M655.668 377.815C656.682 377.815 657.504 377.007 657.504 376.01C657.504 375.014 656.682 374.206 655.668 374.206C654.654 374.206 653.832 375.014 653.832 376.01C653.832 377.007 654.654 377.815 655.668 377.815Z" fill="#C4C4C4"/>
<path d="M638.328 356.559C647.792 356.559 655.464 349.018 655.464 339.715C655.464 330.412 647.792 322.871 638.328 322.871C628.864 322.871 621.192 330.412 621.192 339.715C621.192 349.018 628.864 356.559 638.328 356.559Z" fill="#C4C4C4"/>
<path d="M615.684 395.863C626.613 395.863 635.472 387.154 635.472 376.412C635.472 365.669 626.613 356.96 615.684 356.96C604.755 356.96 595.896 365.669 595.896 376.412C595.896 387.154 604.755 395.863 615.684 395.863Z" fill="#C4C4C4"/>
<path d="M650.772 389.446C653.814 389.446 656.28 387.022 656.28 384.031C656.28 381.041 653.814 378.617 650.772 378.617C647.73 378.617 645.264 381.041 645.264 384.031C645.264 387.022 647.73 389.446 650.772 389.446Z" fill="#C4C4C4"/>
<path d="M647.304 419.926C652.487 419.926 656.688 415.796 656.688 410.702C656.688 405.607 652.487 401.478 647.304 401.478C642.121 401.478 637.92 405.607 637.92 410.702C637.92 415.796 642.121 419.926 647.304 419.926Z" fill="#C4C4C4"/>
<path d="M627.72 406.29C629.748 406.29 631.392 404.674 631.392 402.681C631.392 400.687 629.748 399.071 627.72 399.071C625.692 399.071 624.048 400.687 624.048 402.681C624.048 404.674 625.692 406.29 627.72 406.29Z" fill="#C4C4C4"/>
<path d="M626.088 421.931C629.243 421.931 631.8 419.417 631.8 416.316C631.8 413.215 629.243 410.702 626.088 410.702C622.933 410.702 620.376 413.215 620.376 416.316C620.376 419.417 622.933 421.931 626.088 421.931Z" fill="#C4C4C4"/>
<path d="M679.332 319.662C682.599 319.662 685.248 317.059 685.248 313.847C685.248 310.635 682.599 308.032 679.332 308.032C676.065 308.032 673.416 310.635 673.416 313.847C673.416 317.059 676.065 319.662 679.332 319.662Z" fill="#C4C4C4"/>
<path d="M681.372 336.507C682.837 336.507 684.024 335.34 684.024 333.9C684.024 332.46 682.837 331.293 681.372 331.293C679.907 331.293 678.72 332.46 678.72 333.9C678.72 335.34 679.907 336.507 681.372 336.507Z" fill="#C4C4C4"/>
<path d="M678.108 396.264C679.347 396.264 680.352 395.276 680.352 394.058C680.352 392.84 679.347 391.852 678.108 391.852C676.869 391.852 675.864 392.84 675.864 394.058C675.864 395.276 676.869 396.264 678.108 396.264Z" fill="#C4C4C4"/>
<path d="M682.8 460.032C693.391 460.032 701.976 451.592 701.976 441.182C701.976 430.772 693.391 422.333 682.8 422.333C672.209 422.333 663.624 430.772 663.624 441.182C663.624 451.592 672.209 460.032 682.8 460.032Z" fill="#C4C4C4"/>
<path d="M823.56 296H666.888V450.005H823.56V296Z" fill="#535D74" fill-opacity="0.7"/>
</g>
<path d="M510 163.375C510 121.746 543.663 88 585.189 88C626.715 88 660.379 121.746 660.379 163.375C660.379 205.003 626.715 238.749 585.189 238.749C543.663 238.749 510 205.003 510 163.375Z" fill="#DCDCDC"/>
<mask id="mask2_301_907" style="mask-type:alpha" maskUnits="userSpaceOnUse" x="510" y="88" width="151" height="151">
<path d="M585.189 238.749C626.715 238.749 660.379 205.003 660.379 163.375C660.379 121.746 626.715 88 585.189 88C543.663 88 510 121.746 510 163.375C510 205.003 543.663 238.749 585.189 238.749Z" fill="#DCDCDC"/>
</mask>
<g mask="url(#mask2_301_907)">
<path d="M594.309 170.892C601.249 170.892 606.875 165.252 606.875 158.296C606.875 151.339 601.249 145.699 594.309 145.699C587.37 145.699 581.744 151.339 581.744 158.296C581.744 165.252 587.37 170.892 594.309 170.892Z" fill="#CCCBCB"/>
<path d="M629.979 184.707C635.799 184.707 640.517 179.977 640.517 174.143C640.517 168.308 635.799 163.578 629.979 163.578C624.158 163.578 619.44 168.308 619.44 174.143C619.44 179.977 624.158 184.707 629.979 184.707Z" fill="#C4C4C4"/>
<path d="M631.803 148.544C636.616 148.544 640.517 144.632 640.517 139.807C640.517 134.983 636.616 131.071 631.803 131.071C626.99 131.071 623.088 134.983 623.088 139.807C623.088 144.632 626.99 148.544 631.803 148.544Z" fill="#C4C4C4"/>
<path d="M614.779 207.868C619.592 207.868 623.493 203.957 623.493 199.132C623.493 194.307 619.592 190.396 614.779 190.396C609.966 190.396 606.064 194.307 606.064 199.132C606.064 203.957 609.966 207.868 614.779 207.868Z" fill="#C4C4C4"/>
<path d="M569.787 168.048C571.466 168.048 572.827 166.683 572.827 165C572.827 163.317 571.466 161.953 569.787 161.953C568.108 161.953 566.747 163.317 566.747 165C566.747 166.683 568.108 168.048 569.787 168.048Z" fill="#C4C4C4"/>
<path d="M574.245 170.892C575.253 170.892 576.069 170.073 576.069 169.063C576.069 168.054 575.253 167.235 574.245 167.235C573.238 167.235 572.421 168.054 572.421 169.063C572.421 170.073 573.238 170.892 574.245 170.892Z" fill="#C4C4C4"/>
<path d="M557.019 149.357C566.421 149.357 574.043 141.716 574.043 132.291C574.043 122.865 566.421 115.225 557.019 115.225C547.617 115.225 539.995 122.865 539.995 132.291C539.995 141.716 547.617 149.357 557.019 149.357Z" fill="#C4C4C4"/>
<path d="M534.523 189.177C545.38 189.177 554.181 180.354 554.181 169.47C554.181 158.586 545.38 149.763 534.523 149.763C523.665 149.763 514.864 158.586 514.864 169.47C514.864 180.354 523.665 189.177 534.523 189.177Z" fill="#C4C4C4"/>
<path d="M569.381 182.676C572.404 182.676 574.853 180.22 574.853 177.19C574.853 174.161 572.404 171.705 569.381 171.705C566.359 171.705 563.909 174.161 563.909 177.19C563.909 180.22 566.359 182.676 569.381 182.676Z" fill="#C4C4C4"/>
<path d="M565.936 213.557C571.085 213.557 575.259 209.373 575.259 204.211C575.259 199.05 571.085 194.866 565.936 194.866C560.787 194.866 556.613 199.05 556.613 204.211C556.613 209.373 560.787 213.557 565.936 213.557Z" fill="#C4C4C4"/>
<path d="M546.48 199.742C548.495 199.742 550.128 198.104 550.128 196.085C550.128 194.065 548.495 192.428 546.48 192.428C544.465 192.428 542.832 194.065 542.832 196.085C542.832 198.104 544.465 199.742 546.48 199.742Z" fill="#C4C4C4"/>
<path d="M544.859 215.589C547.993 215.589 550.533 213.042 550.533 209.9C550.533 206.758 547.993 204.211 544.859 204.211C541.725 204.211 539.184 206.758 539.184 209.9C539.184 213.042 541.725 215.589 544.859 215.589Z" fill="#C4C4C4"/>
<path d="M597.755 111.974C601.001 111.974 603.632 109.336 603.632 106.082C603.632 102.828 601.001 100.19 597.755 100.19C594.509 100.19 591.877 102.828 591.877 106.082C591.877 109.336 594.509 111.974 597.755 111.974Z" fill="#C4C4C4"/>
<path d="M599.781 129.04C601.236 129.04 602.416 127.857 602.416 126.398C602.416 124.94 601.236 123.757 599.781 123.757C598.326 123.757 597.147 124.94 597.147 126.398C597.147 127.857 598.326 129.04 599.781 129.04Z" fill="#C4C4C4"/>
<path d="M596.539 189.583C597.77 189.583 598.768 188.583 598.768 187.349C598.768 186.114 597.77 185.114 596.539 185.114C595.307 185.114 594.309 186.114 594.309 187.349C594.309 188.583 595.307 189.583 596.539 189.583Z" fill="#C4C4C4"/>
<path d="M601.2 254.19C611.721 254.19 620.251 245.64 620.251 235.093C620.251 224.545 611.721 215.995 601.2 215.995C590.679 215.995 582.149 224.545 582.149 235.093C582.149 245.64 590.679 254.19 601.2 254.19Z" fill="#C4C4C4"/>
<path d="M580.707 78.4281C577.081 79.3102 576.94 84.2573 580.243 86.0029C582.247 87.0618 584.226 88.2062 586.175 89.4371C618.948 125.573 628.133 163.806 608.721 209.451C600.803 222.051 594.274 232.321 583.066 239.778C579.82 241.633 580.14 246.578 583.804 247.325C617.96 254.288 654.371 239.947 674.056 208.626C699.468 168.19 687.38 114.765 647.055 89.2977C626.505 76.3187 602.587 73.1058 580.707 78.4281Z" fill="#535D74" fill-opacity="0.7"/>
</g>
<path d="M297 75.3747C297 33.7464 330.355 0 371.5 0C412.645 0 446 33.7464 446 75.3747C446 117.003 412.645 150.749 371.5 150.749C330.355 150.749 297 117.003 297 75.3747Z" fill="#DCDCDC"/>
<mask id="mask3_301_907" style="mask-type:alpha" maskUnits="userSpaceOnUse" x="297" y="0" width="149" height="151">
<path d="M371.5 150.749C412.645 150.749 446 117.003 446 75.3747C446 33.7464 412.645 0 371.5 0C330.355 0 297 33.7464 297 75.3747C297 117.003 330.355 150.749 371.5 150.749Z" fill="#DCDCDC"/>
</mask>
<g mask="url(#mask3_301_907)">
<path d="M380.536 82.8918C387.412 82.8918 392.986 77.2523 392.986 70.2955C392.986 63.3388 387.412 57.6992 380.536 57.6992C373.66 57.6992 368.086 63.3388 368.086 70.2955C368.086 77.2523 373.66 82.8918 380.536 82.8918Z" fill="#CCCBCB"/>
<path d="M415.879 96.7069C421.646 96.7069 426.321 91.977 426.321 86.1423C426.321 80.3076 421.646 75.5776 415.879 75.5776C410.112 75.5776 405.437 80.3076 405.437 86.1423C405.437 91.977 410.112 96.7069 415.879 96.7069Z" fill="#C4C4C4"/>
<path d="M417.686 60.5436C422.455 60.5436 426.321 56.6323 426.321 51.8074C426.321 46.9826 422.455 43.0713 417.686 43.0713C412.917 43.0713 409.051 46.9826 409.051 51.8074C409.051 56.6323 412.917 60.5436 417.686 60.5436Z" fill="#C4C4C4"/>
<path d="M400.818 119.868C405.587 119.868 409.453 115.956 409.453 111.132C409.453 106.307 405.587 102.396 400.818 102.396C396.049 102.396 392.183 106.307 392.183 111.132C392.183 115.956 396.049 119.868 400.818 119.868Z" fill="#C4C4C4"/>
<path d="M356.238 80.0476C357.902 80.0476 359.251 78.6832 359.251 77.0001C359.251 75.317 357.902 73.9526 356.238 73.9526C354.575 73.9526 353.226 75.317 353.226 77.0001C353.226 78.6832 354.575 80.0476 356.238 80.0476Z" fill="#C4C4C4"/>
<path d="M360.656 82.8919C361.654 82.8919 362.463 82.0732 362.463 81.0634C362.463 80.0535 361.654 79.2349 360.656 79.2349C359.658 79.2349 358.849 80.0535 358.849 81.0634C358.849 82.0732 359.658 82.8919 360.656 82.8919Z" fill="#C4C4C4"/>
<path d="M343.588 61.356C352.904 61.356 360.456 53.7154 360.456 44.2901C360.456 34.8648 352.904 27.2241 343.588 27.2241C334.272 27.2241 326.72 34.8648 326.72 44.2901C326.72 53.7154 334.272 61.356 343.588 61.356Z" fill="#C4C4C4"/>
<path d="M321.298 101.177C332.055 101.177 340.776 92.3538 340.776 81.4698C340.776 70.5859 332.055 61.7627 321.298 61.7627C310.54 61.7627 301.819 70.5859 301.819 81.4698C301.819 92.3538 310.54 101.177 321.298 101.177Z" fill="#C4C4C4"/>
<path d="M355.837 94.6756C358.831 94.6756 361.259 92.2196 361.259 89.1901C361.259 86.1605 358.831 83.7046 355.837 83.7046C352.842 83.7046 350.415 86.1605 350.415 89.1901C350.415 92.2196 352.842 94.6756 355.837 94.6756Z" fill="#C4C4C4"/>
<path d="M352.423 125.557C357.525 125.557 361.66 121.372 361.66 116.211C361.66 111.049 357.525 106.865 352.423 106.865C347.322 106.865 343.186 111.049 343.186 116.211C343.186 121.372 347.322 125.557 352.423 125.557Z" fill="#C4C4C4"/>
<path d="M333.146 111.741C335.142 111.741 336.76 110.104 336.76 108.084C336.76 106.065 335.142 104.427 333.146 104.427C331.149 104.427 329.531 106.065 329.531 108.084C329.531 110.104 331.149 111.741 333.146 111.741Z" fill="#C4C4C4"/>
<path d="M331.539 127.588C334.644 127.588 337.162 125.041 337.162 121.9C337.162 118.758 334.644 116.211 331.539 116.211C328.434 116.211 325.916 118.758 325.916 121.9C325.916 125.041 328.434 127.588 331.539 127.588Z" fill="#C4C4C4"/>
<path d="M383.95 23.9736C387.166 23.9736 389.774 21.3357 389.774 18.0818C389.774 14.8278 387.166 12.1899 383.95 12.1899C380.734 12.1899 378.127 14.8278 378.127 18.0818C378.127 21.3357 380.734 23.9736 383.95 23.9736Z" fill="#C4C4C4"/>
<path d="M385.958 41.0396C387.4 41.0396 388.569 39.8572 388.569 38.3985C388.569 36.9398 387.4 35.7573 385.958 35.7573C384.516 35.7573 383.348 36.9398 383.348 38.3985C383.348 39.8572 384.516 41.0396 385.958 41.0396Z" fill="#C4C4C4"/>
<path d="M382.745 101.583C383.965 101.583 384.954 100.582 384.954 99.3481C384.954 98.1138 383.965 97.1133 382.745 97.1133C381.525 97.1133 380.536 98.1138 380.536 99.3481C380.536 100.582 381.525 101.583 382.745 101.583Z" fill="#C4C4C4"/>
<path d="M387.364 166.19C397.789 166.19 406.24 157.64 406.24 147.092C406.24 136.545 397.789 127.995 387.364 127.995C376.939 127.995 368.488 136.545 368.488 147.092C368.488 157.64 376.939 166.19 387.364 166.19Z" fill="#C4C4C4"/>
</g>
<path d="M83.6106 577.375C83.6106 535.746 117.053 502 158.305 502C199.558 502 233 535.746 233 577.375C233 619.003 199.558 652.749 158.305 652.749C117.053 652.749 83.6106 619.003 83.6106 577.375Z" fill="#DCDCDC"/>
<mask id="mask4_301_907" style="mask-type:alpha" maskUnits="userSpaceOnUse" x="83" y="502" width="150" height="151">
<path d="M158.305 652.749C199.558 652.749 233 619.003 233 577.375C233 535.746 199.558 502 158.305 502C117.053 502 83.6106 535.746 83.6106 577.375C83.6106 619.003 117.053 652.749 158.305 652.749Z" fill="#DCDCDC"/>
</mask>
<g mask="url(#mask4_301_907)">
<path d="M167.365 584.892C174.259 584.892 179.848 579.252 179.848 572.296C179.848 565.339 174.259 559.699 167.365 559.699C160.471 559.699 154.883 565.339 154.883 572.296C154.883 579.252 160.471 584.892 167.365 584.892Z" fill="#CCCBCB"/>
<path d="M202.8 598.707C208.582 598.707 213.269 593.977 213.269 588.142C213.269 582.308 208.582 577.578 202.8 577.578C197.018 577.578 192.331 582.308 192.331 588.142C192.331 593.977 197.018 598.707 202.8 598.707Z" fill="#C4C4C4"/>
<path d="M204.612 562.543C209.393 562.543 213.269 558.632 213.269 553.807C213.269 548.982 209.393 545.071 204.612 545.071C199.831 545.071 195.955 548.982 195.955 553.807C195.955 558.632 199.831 562.543 204.612 562.543Z" fill="#C4C4C4"/>
<path d="M187.7 621.868C192.481 621.868 196.357 617.956 196.357 613.132C196.357 608.307 192.481 604.396 187.7 604.396C182.919 604.396 179.042 608.307 179.042 613.132C179.042 617.956 182.919 621.868 187.7 621.868Z" fill="#C4C4C4"/>
<path d="M143.004 582.047C144.672 582.047 146.024 580.683 146.024 579C146.024 577.317 144.672 575.952 143.004 575.952C141.336 575.952 139.984 577.317 139.984 579C139.984 580.683 141.336 582.047 143.004 582.047Z" fill="#C4C4C4"/>
<path d="M147.433 584.891C148.434 584.891 149.245 584.073 149.245 583.063C149.245 582.053 148.434 581.234 147.433 581.234C146.433 581.234 145.621 582.053 145.621 583.063C145.621 584.073 146.433 584.891 147.433 584.891Z" fill="#C4C4C4"/>
<path d="M130.32 563.356C139.66 563.356 147.232 555.715 147.232 546.29C147.232 536.865 139.66 529.224 130.32 529.224C120.98 529.224 113.408 536.865 113.408 546.29C113.408 555.715 120.98 563.356 130.32 563.356Z" fill="#C4C4C4"/>
<path d="M107.972 603.176C118.758 603.176 127.501 594.353 127.501 583.469C127.501 572.585 118.758 563.762 107.972 563.762C97.1862 563.762 88.4426 572.585 88.4426 583.469C88.4426 594.353 97.1862 603.176 107.972 603.176Z" fill="#C4C4C4"/>
<path d="M142.601 596.675C145.604 596.675 148.037 594.219 148.037 591.19C148.037 588.16 145.604 585.704 142.601 585.704C139.599 585.704 137.165 588.16 137.165 591.19C137.165 594.219 139.599 596.675 142.601 596.675Z" fill="#C4C4C4"/>
<path d="M139.179 627.557C144.293 627.557 148.44 623.372 148.44 618.211C148.44 613.049 144.293 608.865 139.179 608.865C134.064 608.865 129.917 613.049 129.917 618.211C129.917 623.372 134.064 627.557 139.179 627.557Z" fill="#C4C4C4"/>
<path d="M119.851 613.741C121.852 613.741 123.475 612.104 123.475 610.084C123.475 608.065 121.852 606.427 119.851 606.427C117.849 606.427 116.227 608.065 116.227 610.084C116.227 612.104 117.849 613.741 119.851 613.741Z" fill="#C4C4C4"/>
<path d="M118.24 629.588C121.353 629.588 123.877 627.041 123.877 623.9C123.877 620.758 121.353 618.211 118.24 618.211C115.126 618.211 112.603 620.758 112.603 623.9C112.603 627.041 115.126 629.588 118.24 629.588Z" fill="#C4C4C4"/>
<path d="M170.788 525.974C174.012 525.974 176.627 523.336 176.627 520.082C176.627 516.828 174.012 514.19 170.788 514.19C167.563 514.19 164.949 516.828 164.949 520.082C164.949 523.336 167.563 525.974 170.788 525.974Z" fill="#C4C4C4"/>
<path d="M172.801 543.039C174.247 543.039 175.419 541.857 175.419 540.398C175.419 538.939 174.247 537.757 172.801 537.757C171.356 537.757 170.184 538.939 170.184 540.398C170.184 541.857 171.356 543.039 172.801 543.039Z" fill="#C4C4C4"/>
<path d="M169.58 603.583C170.803 603.583 171.795 602.582 171.795 601.348C171.795 600.114 170.803 599.113 169.58 599.113C168.357 599.113 167.365 600.114 167.365 601.348C167.365 602.582 168.357 603.583 169.58 603.583Z" fill="#C4C4C4"/>
<path d="M174.21 668.19C184.663 668.19 193.136 659.64 193.136 649.092C193.136 638.545 184.663 629.995 174.21 629.995C163.758 629.995 155.285 638.545 155.285 649.092C155.285 659.64 163.758 668.19 174.21 668.19Z" fill="#C4C4C4"/>
<path d="M166.549 664.298C170.115 663.276 170.066 658.327 166.721 656.711C164.691 655.73 162.683 654.663 160.701 653.509C126.786 618.668 116.206 580.818 133.731 534.456C141.109 521.56 147.198 511.045 158.039 503.159C161.19 501.18 160.683 496.251 157.017 495.647C122.845 490.01 87.2487 505.748 68.9061 537.808C45.2258 579.197 59.2686 632.114 100.271 656.003C121.168 668.177 145.034 670.463 166.549 664.298Z" fill="#535D74" fill-opacity="0.7"/>
</g>
<path d="M1.62134 370.396C1.62134 329.308 35.2848 296 76.8107 296C118.337 296 152 329.308 152 370.396C152 411.484 118.337 444.792 76.8107 444.792C35.2848 444.792 1.62134 411.484 1.62134 370.396Z" fill="#DCDCDC"/>
<mask id="mask5_301_907" style="mask-type:alpha" maskUnits="userSpaceOnUse" x="1" y="296" width="151" height="149">
<path d="M76.8107 444.792C118.337 444.792 152 411.483 152 370.396C152 329.308 118.337 296 76.8107 296C35.2847 296 1.62134 329.308 1.62134 370.396C1.62134 411.483 35.2847 444.792 76.8107 444.792Z" fill="#DCDCDC"/>
</mask>
<g mask="url(#mask5_301_907)">
<path d="M85.9306 377.816C92.8702 377.816 98.4959 372.249 98.4959 365.383C98.4959 358.517 92.8702 352.95 85.9306 352.95C78.9909 352.95 73.3652 358.517 73.3652 365.383C73.3652 372.249 78.9909 377.816 85.9306 377.816Z" fill="#CCCBCB"/>
<path d="M121.6 391.451C127.42 391.451 132.139 386.783 132.139 381.024C132.139 375.265 127.42 370.596 121.6 370.596C115.78 370.596 111.061 375.265 111.061 381.024C111.061 386.783 115.78 391.451 121.6 391.451Z" fill="#C4C4C4"/>
<path d="M123.424 355.757C128.237 355.757 132.139 351.897 132.139 347.134C132.139 342.372 128.237 338.512 123.424 338.512C118.611 338.512 114.709 342.372 114.709 347.134C114.709 351.897 118.611 355.757 123.424 355.757Z" fill="#C4C4C4"/>
<path d="M106.4 414.311C111.213 414.311 115.115 410.451 115.115 405.689C115.115 400.926 111.213 397.066 106.4 397.066C101.587 397.066 97.6853 400.926 97.6853 405.689C97.6853 410.451 101.587 414.311 106.4 414.311Z" fill="#C4C4C4"/>
<path d="M61.4079 375.008C63.0869 375.008 64.4479 373.661 64.4479 372C64.4479 370.339 63.0869 368.992 61.4079 368.992C59.729 368.992 58.3679 370.339 58.3679 372C58.3679 373.661 59.729 375.008 61.4079 375.008Z" fill="#C4C4C4"/>
<path d="M65.8665 377.816C66.8738 377.816 67.6905 377.008 67.6905 376.011C67.6905 375.014 66.8738 374.206 65.8665 374.206C64.8591 374.206 64.0425 375.014 64.0425 376.011C64.0425 377.008 64.8591 377.816 65.8665 377.816Z" fill="#C4C4C4"/>
<path d="M48.64 356.559C58.0421 356.559 65.664 349.018 65.664 339.715C65.664 330.412 58.0421 322.871 48.64 322.871C39.2379 322.871 31.616 330.412 31.616 339.715C31.616 349.018 39.2379 356.559 48.64 356.559Z" fill="#C4C4C4"/>
<path d="M26.144 395.863C37.0012 395.863 45.8027 387.154 45.8027 376.412C45.8027 365.669 37.0012 356.96 26.144 356.96C15.2868 356.96 6.48535 365.669 6.48535 376.412C6.48535 387.154 15.2868 395.863 26.144 395.863Z" fill="#C4C4C4"/>
<path d="M61.0025 389.446C64.0246 389.446 66.4745 387.022 66.4745 384.032C66.4745 381.042 64.0246 378.618 61.0025 378.618C57.9804 378.618 55.5305 381.042 55.5305 384.032C55.5305 387.022 57.9804 389.446 61.0025 389.446Z" fill="#C4C4C4"/>
<path d="M57.5573 419.926C62.7061 419.926 66.88 415.796 66.88 410.702C66.88 405.607 62.7061 401.478 57.5573 401.478C52.4085 401.478 48.2346 405.607 48.2346 410.702C48.2346 415.796 52.4085 419.926 57.5573 419.926Z" fill="#C4C4C4"/>
<path d="M38.1011 406.29C40.1159 406.29 41.7491 404.674 41.7491 402.681C41.7491 400.687 40.1159 399.071 38.1011 399.071C36.0864 399.071 34.4531 400.687 34.4531 402.681C34.4531 404.674 36.0864 406.29 38.1011 406.29Z" fill="#C4C4C4"/>
<path d="M36.4798 421.932C39.6139 421.932 42.1545 419.418 42.1545 416.317C42.1545 413.216 39.6139 410.702 36.4798 410.702C33.3458 410.702 30.8052 413.216 30.8052 416.317C30.8052 419.418 33.3458 421.932 36.4798 421.932Z" fill="#C4C4C4"/>
<path d="M89.3759 319.662C92.6218 319.662 95.2532 317.059 95.2532 313.847C95.2532 310.635 92.6218 308.032 89.3759 308.032C86.1299 308.032 83.4985 310.635 83.4985 313.847C83.4985 317.059 86.1299 319.662 89.3759 319.662Z" fill="#C4C4C4"/>
<path d="M91.4025 336.507C92.8576 336.507 94.0372 335.34 94.0372 333.9C94.0372 332.46 92.8576 331.293 91.4025 331.293C89.9474 331.293 88.7678 332.46 88.7678 333.9C88.7678 335.34 89.9474 336.507 91.4025 336.507Z" fill="#C4C4C4"/>
<path d="M88.16 396.264C89.3912 396.264 90.3893 395.277 90.3893 394.058C90.3893 392.84 89.3912 391.853 88.16 391.853C86.9288 391.853 85.9307 392.84 85.9307 394.058C85.9307 395.277 86.9288 396.264 88.16 396.264Z" fill="#C4C4C4"/>
<path d="M92.8212 460.032C103.343 460.032 111.872 451.592 111.872 441.182C111.872 430.772 103.343 422.333 92.8212 422.333C82.2998 422.333 73.7705 430.772 73.7705 441.182C73.7705 451.592 82.2998 460.032 92.8212 460.032Z" fill="#C4C4C4"/>
<path d="M77.0132 293.594H-78.6348V447.599H77.0132V293.594Z" fill="#535D74" fill-opacity="0.7"/>
</g>
<path d="M296.615 665.375C296.615 623.746 330.142 590 371.5 590C412.858 590 446.385 623.746 446.385 665.375C446.385 707.003 412.858 740.749 371.5 740.749C330.142 740.749 296.615 707.003 296.615 665.375Z" fill="#DCDCDC"/>
<mask id="mask6_301_907" style="mask-type:alpha" maskUnits="userSpaceOnUse" x="296" y="590" width="151" height="151">
<path d="M371.5 740.749C412.858 740.749 446.385 707.003 446.385 665.375C446.385 623.746 412.858 590 371.5 590C330.142 590 296.615 623.746 296.615 665.375C296.615 707.003 330.142 740.749 371.5 740.749Z" fill="#DCDCDC"/>
</mask>
<g mask="url(#mask6_301_907)">
<path d="M380.583 672.892C387.495 672.892 393.098 667.252 393.098 660.296C393.098 653.339 387.495 647.699 380.583 647.699C373.672 647.699 368.069 653.339 368.069 660.296C368.069 667.252 373.672 672.892 380.583 672.892Z" fill="#CCCBCB"/>
<path d="M416.108 686.707C421.905 686.707 426.604 681.977 426.604 676.143C426.604 670.308 421.905 665.578 416.108 665.578C410.311 665.578 405.612 670.308 405.612 676.143C405.612 681.977 410.311 686.707 416.108 686.707Z" fill="#C4C4C4"/>
<path d="M417.925 650.544C422.718 650.544 426.604 646.632 426.604 641.807C426.604 636.983 422.718 633.071 417.925 633.071C413.131 633.071 409.245 636.983 409.245 641.807C409.245 646.632 413.131 650.544 417.925 650.544Z" fill="#C4C4C4"/>
<path d="M400.97 709.868C405.763 709.868 409.649 705.957 409.649 701.132C409.649 696.307 405.763 692.396 400.97 692.396C396.176 692.396 392.29 696.307 392.29 701.132C392.29 705.957 396.176 709.868 400.97 709.868Z" fill="#C4C4C4"/>
<path d="M356.16 670.048C357.832 670.048 359.187 668.683 359.187 667C359.187 665.317 357.832 663.953 356.16 663.953C354.487 663.953 353.132 665.317 353.132 667C353.132 668.683 354.487 670.048 356.16 670.048Z" fill="#C4C4C4"/>
<path d="M360.6 672.892C361.604 672.892 362.417 672.073 362.417 671.063C362.417 670.054 361.604 669.235 360.6 669.235C359.597 669.235 358.784 670.054 358.784 671.063C358.784 672.073 359.597 672.892 360.6 672.892Z" fill="#C4C4C4"/>
<path d="M343.443 651.357C352.807 651.357 360.398 643.716 360.398 634.291C360.398 624.865 352.807 617.225 343.443 617.225C334.079 617.225 326.488 624.865 326.488 634.291C326.488 643.716 334.079 651.357 343.443 651.357Z" fill="#C4C4C4"/>
<path d="M321.038 691.177C331.851 691.177 340.617 682.354 340.617 671.47C340.617 660.586 331.851 651.763 321.038 651.763C310.225 651.763 301.459 660.586 301.459 671.47C301.459 682.354 310.225 691.177 321.038 691.177Z" fill="#C4C4C4"/>
<path d="M355.756 684.676C358.766 684.676 361.206 682.22 361.206 679.19C361.206 676.161 358.766 673.705 355.756 673.705C352.746 673.705 350.306 676.161 350.306 679.19C350.306 682.22 352.746 684.676 355.756 684.676Z" fill="#C4C4C4"/>
<path d="M352.325 715.557C357.452 715.557 361.609 711.373 361.609 706.211C361.609 701.05 357.452 696.866 352.325 696.866C347.197 696.866 343.04 701.05 343.04 706.211C343.04 711.373 347.197 715.557 352.325 715.557Z" fill="#C4C4C4"/>
<path d="M332.947 701.742C334.954 701.742 336.58 700.104 336.58 698.085C336.58 696.065 334.954 694.428 332.947 694.428C330.941 694.428 329.314 696.065 329.314 698.085C329.314 700.104 330.941 701.742 332.947 701.742Z" fill="#C4C4C4"/>
<path d="M331.332 717.589C334.454 717.589 336.984 715.042 336.984 711.9C336.984 708.758 334.454 706.211 331.332 706.211C328.211 706.211 325.681 708.758 325.681 711.9C325.681 715.042 328.211 717.589 331.332 717.589Z" fill="#C4C4C4"/>
<path d="M384.014 613.974C387.247 613.974 389.868 611.336 389.868 608.082C389.868 604.828 387.247 602.19 384.014 602.19C380.782 602.19 378.161 604.828 378.161 608.082C378.161 611.336 380.782 613.974 384.014 613.974Z" fill="#C4C4C4"/>
<path d="M386.033 631.04C387.482 631.04 388.657 629.857 388.657 628.398C388.657 626.94 387.482 625.757 386.033 625.757C384.584 625.757 383.409 626.94 383.409 628.398C383.409 629.857 384.584 631.04 386.033 631.04Z" fill="#C4C4C4"/>
<path d="M382.803 691.583C384.03 691.583 385.024 690.583 385.024 689.349C385.024 688.114 384.03 687.114 382.803 687.114C381.577 687.114 380.583 688.114 380.583 689.349C380.583 690.583 381.577 691.583 382.803 691.583Z" fill="#C4C4C4"/>
<path d="M387.446 756.19C397.925 756.19 406.42 747.64 406.42 737.092C406.42 726.545 397.925 717.995 387.446 717.995C376.967 717.995 368.472 726.545 368.472 737.092C368.472 747.64 376.967 756.19 387.446 756.19Z" fill="#C4C4C4"/>
<path d="M387.85 769.193C442.919 769.193 487.562 724.622 487.562 669.641C487.562 614.661 442.919 570.09 387.85 570.09C332.78 570.09 288.137 614.661 288.137 669.641C288.137 724.622 332.78 769.193 387.85 769.193Z" fill="#535D74" fill-opacity="0.7"/>
</g>
<path d="M90.6106 163.375C90.6106 121.746 124.053 88 165.305 88C206.558 88 240 121.746 240 163.375C240 205.003 206.558 238.749 165.305 238.749C124.053 238.749 90.6106 205.003 90.6106 163.375Z" fill="#DCDCDC"/>
<mask id="mask7_301_907" style="mask-type:alpha" maskUnits="userSpaceOnUse" x="90" y="88" width="150" height="151">
<path d="M165.305 238.749C206.558 238.749 240 205.003 240 163.375C240 121.746 206.558 88 165.305 88C124.053 88 90.6106 121.746 90.6106 163.375C90.6106 205.003 124.053 238.749 165.305 238.749Z" fill="#DCDCDC"/>
</mask>
<g mask="url(#mask7_301_907)">
<path d="M174.365 170.892C181.259 170.892 186.848 165.252 186.848 158.296C186.848 151.339 181.259 145.699 174.365 145.699C167.471 145.699 161.883 151.339 161.883 158.296C161.883 165.252 167.471 170.892 174.365 170.892Z" fill="#CCCBCB"/>
<path d="M209.8 184.707C215.582 184.707 220.269 179.977 220.269 174.142C220.269 168.308 215.582 163.578 209.8 163.578C204.018 163.578 199.331 168.308 199.331 174.142C199.331 179.977 204.018 184.707 209.8 184.707Z" fill="#C4C4C4"/>
<path d="M211.612 148.544C216.393 148.544 220.269 144.632 220.269 139.807C220.269 134.983 216.393 131.071 211.612 131.071C206.831 131.071 202.955 134.983 202.955 139.807C202.955 144.632 206.831 148.544 211.612 148.544Z" fill="#C4C4C4"/>
<path d="M194.7 207.868C199.481 207.868 203.357 203.957 203.357 199.132C203.357 194.307 199.481 190.396 194.7 190.396C189.919 190.396 186.043 194.307 186.043 199.132C186.043 203.957 189.919 207.868 194.7 207.868Z" fill="#C4C4C4"/>
<path d="M150.004 168.048C151.672 168.048 153.024 166.683 153.024 165C153.024 163.317 151.672 161.953 150.004 161.953C148.336 161.953 146.984 163.317 146.984 165C146.984 166.683 148.336 168.048 150.004 168.048Z" fill="#C4C4C4"/>
<path d="M154.433 170.892C155.434 170.892 156.245 170.073 156.245 169.063C156.245 168.054 155.434 167.235 154.433 167.235C153.433 167.235 152.621 168.054 152.621 169.063C152.621 170.073 153.433 170.892 154.433 170.892Z" fill="#C4C4C4"/>
<path d="M137.32 149.356C146.66 149.356 154.232 141.715 154.232 132.29C154.232 122.865 146.66 115.224 137.32 115.224C127.98 115.224 120.408 122.865 120.408 132.29C120.408 141.715 127.98 149.356 137.32 149.356Z" fill="#C4C4C4"/>
<path d="M114.972 189.177C125.758 189.177 134.502 180.354 134.502 169.47C134.502 158.586 125.758 149.763 114.972 149.763C104.186 149.763 95.4429 158.586 95.4429 169.47C95.4429 180.354 104.186 189.177 114.972 189.177Z" fill="#C4C4C4"/>
<path d="M149.602 182.676C152.604 182.676 155.038 180.22 155.038 177.19C155.038 174.161 152.604 171.705 149.602 171.705C146.599 171.705 144.166 174.161 144.166 177.19C144.166 180.22 146.599 182.676 149.602 182.676Z" fill="#C4C4C4"/>
<path d="M146.179 213.557C151.294 213.557 155.44 209.372 155.44 204.211C155.44 199.049 151.294 194.865 146.179 194.865C141.064 194.865 136.917 199.049 136.917 204.211C136.917 209.372 141.064 213.557 146.179 213.557Z" fill="#C4C4C4"/>
<path d="M126.851 199.741C128.852 199.741 130.475 198.104 130.475 196.084C130.475 194.065 128.852 192.427 126.851 192.427C124.849 192.427 123.227 194.065 123.227 196.084C123.227 198.104 124.849 199.741 126.851 199.741Z" fill="#C4C4C4"/>
<path d="M125.24 215.588C128.354 215.588 130.877 213.041 130.877 209.9C130.877 206.758 128.354 204.211 125.24 204.211C122.127 204.211 119.603 206.758 119.603 209.9C119.603 213.041 122.127 215.588 125.24 215.588Z" fill="#C4C4C4"/>
<path d="M177.788 111.974C181.013 111.974 183.627 109.336 183.627 106.082C183.627 102.828 181.013 100.19 177.788 100.19C174.564 100.19 171.949 102.828 171.949 106.082C171.949 109.336 174.564 111.974 177.788 111.974Z" fill="#C4C4C4"/>
<path d="M179.801 129.04C181.247 129.04 182.419 127.857 182.419 126.398C182.419 124.94 181.247 123.757 179.801 123.757C178.356 123.757 177.184 124.94 177.184 126.398C177.184 127.857 178.356 129.04 179.801 129.04Z" fill="#C4C4C4"/>
<path d="M176.58 189.583C177.803 189.583 178.795 188.582 178.795 187.348C178.795 186.114 177.803 185.113 176.58 185.113C175.357 185.113 174.365 186.114 174.365 187.348C174.365 188.582 175.357 189.583 176.58 189.583Z" fill="#C4C4C4"/>
<path d="M181.211 254.19C191.663 254.19 200.136 245.64 200.136 235.092C200.136 224.545 191.663 215.995 181.211 215.995C170.759 215.995 162.285 224.545 162.285 235.092C162.285 245.64 170.759 254.19 181.211 254.19Z" fill="#C4C4C4"/>
<path d="M100.677 263.129C155.607 263.129 200.136 218.559 200.136 163.578C200.136 108.597 155.607 64.0264 100.677 64.0264C45.7479 64.0264 1.21875 108.597 1.21875 163.578C1.21875 218.559 45.7479 263.129 100.677 263.129Z" fill="#535D74" fill-opacity="0.7"/>
</g>
</svg>
